<?xml version="1.0" standalone="no"?>
<!DOCTYPE svg PUBLIC "-//W3C//DTD SVG 1.1//EN" "http://www.w3.org/Graphics/SVG/1.1/DTD/svg11.dtd" >
<svg xmlns="http://www.w3.org/2000/svg" xmlns:xlink="http://www.w3.org/1999/xlink" version="1.1">
<metadata>
Created by FontForge 20161003 at Mon Feb  4 22:16:36 2019
 By www-data
Copyright (c) 1991, 1998, 1999 Adobe Systems Incorporated.  All Rights Reserved.Formata is either a registered trademark or trademark of Berthold Types Limited in the United States and/or other countries.
</metadata>
<defs>
<font id="formatalight" horiz-adv-x="542" >
  <font-face 
    font-family="formatalight"
    font-weight="300"
    font-stretch="normal"
    units-per-em="1000"
    panose-1="2 11 4 0 0 0 0 0 0 0"
    ascent="748"
    descent="-252"
    x-height="513"
    cap-height="708"
    bbox="-105 -252 1279 936"
    underline-thickness="50"
    underline-position="-150"
    unicode-range="U+0020-FB02"
  />
<missing-glyph horiz-adv-x="292" 
 />
    <glyph glyph-name=".notdef" horiz-adv-x="292" 
 />
    <glyph glyph-name=".null" horiz-adv-x="0" 
 />
    <glyph glyph-name="nonmarkingreturn" horiz-adv-x="333" 
 />
    <glyph glyph-name="space" unicode=" " horiz-adv-x="292" 
 />
    <glyph glyph-name="space" unicode="&#xa0;" horiz-adv-x="292" 
 />
    <glyph glyph-name="exclam" unicode="!" horiz-adv-x="250" 
d="M194 7l-7 -7q-27 0 -78 -3l-8 7q1 13 1 39q0 27 -1 40l7 8q44 1 78 4l8 -7q-2 -38 0 -81zM176 193l-5 -6q-16 -1 -43 -4l-6 7q0 80 -6 273t-12 284l5 6q36 0 73 3l4 -8q0 -14 -2 -40q-10 -185 -10 -410q0 -61 2 -105z" />
    <glyph glyph-name="quotedbl" unicode="&#x22;" horiz-adv-x="396" 
d="M336 700l-36 -255h-19l-32 242q-1 6 -1 16q0 24 14 35t31 11q9 0 18 -3q25 -11 25 -46zM148 700l-35 -255h-19l-33 242q0 3 -0.5 8.5t-0.5 7.5q0 24 14.5 35t31.5 11q9 0 18 -3q24 -11 24 -46z" />
    <glyph glyph-name="numbersign" unicode="#" horiz-adv-x="667" 
d="M429 259l-35 -259h-62l38 259h-101l-38 -259h-58l36 259h-167v54h175l13 97h-167v57h174l32 241h63l-34 -241h100l31 241h60l-33 -241h168v-57h-175l-13 -97h168v-54h-175zM276 313h101l13 97h-100z" />
    <glyph glyph-name="dollar" unicode="$" horiz-adv-x="479" 
d="M271 377l31 -19q32 -19 50 -31t41 -34t33.5 -50.5t10.5 -64.5q0 -83 -60 -138t-156 -55q-15 0 -45 4q-1 -4 -8.5 -39t-8.5 -42l-8 -6q-21 1 -42 0l-5 7q17 57 25 91q-49 10 -92 40l-1 11q5 15 14 52l8 1q32 -33 85 -52l70 287l-26 17q-30 18 -47.5 31t-38.5 33.5
t-31 46.5t-10 57q0 76 52.5 121.5t139.5 45.5q13 0 45 -2q7 30 14 72l7 6q22 -1 43 1l6 -5q-1 -4 -23 -84q53 -14 96 -47l2 -7q-5 -18 -12 -53l-8 -2q-42 41 -90 59zM285 295l-30 19l-66 -276q18 -3 32 -3q69 0 111 42t42 99q0 43 -21.5 67t-67.5 52zM196 422l32 -20l57 236
q-20 3 -33 3q-55 0 -92.5 -30.5t-37.5 -79.5q0 -27 14.5 -51t26.5 -33.5t33 -24.5z" />
    <glyph glyph-name="percent" unicode="%" horiz-adv-x="917" 
d="M363 452q0 -24 -2 -44.5t-11.5 -56.5t-26 -61t-49.5 -44.5t-78 -19.5q-60 0 -98 35t-51.5 83.5t-13.5 110.5q0 30 3 57.5t14 61t28 57.5t48.5 40.5t73.5 16.5q53 0 88.5 -24.5t50.5 -65.5t19.5 -74.5t4.5 -71.5zM310 452q2 195 -111 195q-112 0 -112 -194
q0 -186 113 -186q61 0 88 61q20 46 22 124zM883 217q0 -24 -2 -45t-12 -57t-26 -61t-49 -44t-77 -19q-45 0 -78 19t-51 52t-26 72t-8 86q0 30 3 57.5t14 60.5t28 57t48.5 40.5t73.5 16.5q43 0 74.5 -17.5t48 -42t26 -59.5t11.5 -61t2 -55zM830 217q2 194 -110 194t-112 -193
q0 -186 112 -186q61 0 88 61q20 46 22 124zM348 8l-9 -7q-8 0 -40 -2l-6 8q43 90 103 237l102 246q22 58 42 103q22 54 29 77l11 7q9 0 19.5 0.5t17.5 0.5l7 -6q-42 -90 -91 -208l-99 -241q-65 -159 -86 -215z" />
    <glyph glyph-name="ampersand" unicode="&#x26;" horiz-adv-x="583" 
d="M575 10l-5 -10q-21 0 -39 -1q-17 0 -35 -2l-8 4l-1 1q-31 45 -63 82q-91 -93 -196 -93q-88 0 -141.5 52.5t-53.5 127.5q0 39 13.5 71t42 57t48.5 38t56 33q-51 64 -67 99t-16 68q0 64 46 109.5t120 45.5q67 0 111 -40.5t44 -101.5q0 -36 -13 -66t-40.5 -54.5t-46.5 -38
t-54 -34.5q72 -93 152 -188q41 54 70 126v1l8 1l1 -1q18 -25 36 -44v-10q-31 -58 -78 -114q37 -43 55 -61q5 -5 13.5 -14t16 -17t14.5 -16zM390 124l-166 203q-26 -15 -41 -25t-37.5 -30t-34 -46t-11.5 -57q0 -55 38 -90.5t98 -35.5q37 0 71 16.5t48.5 29.5t34.5 35z
M244 398l1 1q25 14 40.5 24.5t38 30t34.5 43.5t12 52q0 39 -27 65.5t-72 26.5q-47 0 -74 -29t-27 -66q0 -22 13.5 -51.5t24.5 -45.5t36 -51z" />
    <glyph glyph-name="quotesingle" unicode="'" horiz-adv-x="208" 
d="M148 700l-35 -255h-19l-33 242q0 3 -0.5 8.5t-0.5 7.5q0 24 14.5 35t31.5 11q9 0 18 -3q24 -11 24 -46z" />
    <glyph glyph-name="parenleft" unicode="(" horiz-adv-x="396" 
d="M353 -218l-14 4q-76 50 -130.5 116t-81 133.5t-38 125t-11.5 112.5q0 142 64 268.5t176 204.5q14 10 21 14l14 5h36l4 -10q-62 -47 -108 -105t-70 -108t-38 -106t-17.5 -91.5t-3.5 -71.5q0 -173 82 -311q59 -99 155 -170l-4 -10h-36z" />
    <glyph glyph-name="parenright" unicode=")" horiz-adv-x="396" 
d="M43 765l14 -5q76 -50 130.5 -115.5t81 -133.5t38 -125.5t11.5 -112.5q0 -143 -64 -269t-176 -203q-14 -10 -21 -14l-14 -5h-36l-4 10q53 39 92 83q145 164 145 398q0 174 -82 312q-59 99 -155 170l4 10h36z" />
    <glyph glyph-name="asterisk" unicode="*" horiz-adv-x="438" 
d="M46 680l9 3q68 -54 142 -94q-2 77 -14 166l6 8q29 0 55 2l8 -6q-11 -62 -12 -170q75 44 136 94l10 -1q12 -19 31 -46l-2 -10q-66 -25 -153 -74q63 -36 149 -71l4 -9q-14 -26 -24 -49l-10 -4q-57 46 -141 95q5 -101 14 -167l-6 -8q-29 0 -55 -2l-7 7q10 65 11 169
q-72 -43 -136 -94l-10 1q-14 25 -30 46l1 10q56 21 154 75q-67 35 -150 71l-5 9q13 21 25 49z" />
    <glyph glyph-name="plus" unicode="+" horiz-adv-x="667" 
d="M364 261v-261h-59v261h-262v60h262v260h59v-260h261v-60h-261z" />
    <glyph glyph-name="comma" unicode="," horiz-adv-x="208" 
d="M150 94l6 -9q-38 -90 -80 -239l-7 -8q-20 0 -40 -1l-4 6q27 113 47 240l7 8q32 0 71 3z" />
    <glyph glyph-name="hyphen" unicode="-" horiz-adv-x="292" 
d="M267 314l7 -6q-1 -10 -2.5 -20.5t-2 -17t-1.5 -14.5l-6 -5q-56 2 -150 2q-49 0 -87 -2l-7 9q5 25 6 47l7 7q51 -3 152 -3q49 0 84 3z" />
    <glyph glyph-name="hyphen" unicode="&#xad;" horiz-adv-x="292" 
d="M267 314l7 -6q-1 -10 -2.5 -20.5t-2 -17t-1.5 -14.5l-6 -5q-56 2 -150 2q-49 0 -87 -2l-7 9q5 25 6 47l7 7q51 -3 152 -3q49 0 84 3z" />
    <glyph glyph-name="period" unicode="." horiz-adv-x="208" 
d="M151 7l-8 -7q-27 0 -78 -3l-8 7q2 26 2 39q0 14 -2 40l7 8q44 1 78 4l8 -7q-1 -39 1 -81z" />
    <glyph glyph-name="slash" unicode="/" horiz-adv-x="438" 
d="M293 428l-125 -301q-51 -121 -94 -236q-7 -19 -8 -22l-10 -7q-14 1 -27 1q-5 0 -15 -0.5t-15 -0.5l-6 9q59 124 130 294l120 288q72 176 119 305l10 7q27 -1 58 0l6 -9q-49 -98 -143 -328z" />
    <glyph glyph-name="zero" unicode="0" horiz-adv-x="583" 
d="M541 333q0 -26 -1.5 -50t-8 -60.5t-16.5 -67t-29 -63t-45 -55t-65.5 -37t-87.5 -14.5q-112 0 -175 80q-71 89 -71 272q0 189 78 279q63 75 175 75q73 0 124.5 -31.5t77 -86.5t35.5 -113.5t9 -127.5zM473 332q2 135 -34 215q-43 96 -146 96q-182 0 -182 -309q0 -47 5 -88
t17.5 -80.5t32.5 -67.5t52.5 -45.5t75.5 -17.5q174 0 179 297z" />
    <glyph glyph-name="one" unicode="1" horiz-adv-x="583" 
d="M357 6l-6 -6q-36 0 -61 -2l-7 6q2 43 2 118q0 166 -1 248q-3 208 -2 256q-44 -6 -99 -17l-8 6q2 32 2 43l6 8q89 11 161 22l8 -6q-4 -104 -4 -188q0 -289 9 -488z" />
    <glyph glyph-name="two" unicode="2" horiz-adv-x="583" 
d="M509 6l-9 -7q-23 0 -82 1h-298q-59 -1 -82 -1l-4 8q4 4 64.5 63t72.5 72q38 37 112 113q76 78 106 127t30 104q0 68 -44 109.5t-115 41.5q-97 0 -193 -83l-7 5q3 25 3 60l5 10q98 63 199 63q105 0 162 -58t57 -142q0 -73 -46 -145q-23 -35 -57.5 -72.5t-116.5 -118.5
l-107 -104h109q133 2 240 6l6 -6q-2 -11 -5 -46z" />
    <glyph glyph-name="three" unicode="3" horiz-adv-x="583" 
d="M332 480l-55 -79q11 1 24 1q79 0 137.5 -50.5t58.5 -146.5q0 -98 -68 -159t-186 -61q-115 0 -195 55l-4 9q4 34 5 52l9 3q78 -66 182 -66q86 0 139.5 47t53.5 121q0 68 -50 108t-123 40q-42 0 -95 -15l-5 8l76 98q44 56 134 182l-125 -1q-170 -2 -173 -2l-6 7q3 17 4 42
l7 5q6 0 40.5 -0.5t41.5 -0.5h234q5 0 40 0.5t42 0.5l4 -8q-51 -61 -147 -190z" />
    <glyph glyph-name="four" unicode="4" horiz-adv-x="583" 
d="M539 208l-8 -8q-47 2 -93 0q0 -116 4 -176v-13l-4 -9q-11 0 -29.5 -1t-27.5 -1l-7 6q2 44 2 194q-22 1 -65 1q-19 0 -133 -1t-135 -1l-6 7q1 14 3 40l5 12q150 206 287 417l9 6h34q5 0 27.5 1t26.5 1l9 -7v-199v-226h48l48 1l8 -6q-1 -6 -3 -38zM107 253h268l3 395z" />
    <glyph glyph-name="five" unicode="5" horiz-adv-x="583" 
d="M170 625l-8 -204q63 27 124 27q100 0 163.5 -61t63.5 -158q0 -101 -70.5 -172t-196.5 -71q-94 0 -174 46l-6 10q2 17 5 48l9 5q80 -56 170 -56q97 0 147 56.5t50 127.5q0 18 -3.5 38t-15.5 44.5t-30 43t-51 31.5t-75 13q-83 0 -168 -49l-8 6l7 119q7 126 7 203l7 6
q6 0 41 -0.5t42 -0.5h185q6 0 40.5 0.5t41.5 0.5l7 -6q-4 -27 -5 -42l-7 -7q-21 0 -64 0.5t-64 1.5h-164z" />
    <glyph glyph-name="six" unicode="6" horiz-adv-x="583" 
d="M504 593l-10 -4q-61 52 -142 52q-68 0 -123 -39q-32 -24 -52.5 -57.5t-30 -76t-12 -70t-4.5 -68.5q73 88 191 88q102 0 156.5 -61.5t54.5 -149.5q0 -94 -62.5 -158t-168.5 -64q-111 0 -174 81t-63 238q0 166 56 262q74 126 227 126q87 0 157 -42l4 -10q-4 -37 -4 -47z
M130 268q0 -93 36 -153q47 -79 138 -79q85 0 124 52.5t39 120.5q0 73 -42 114t-112 41q-109 0 -183 -96z" />
    <glyph glyph-name="seven" unicode="7" horiz-adv-x="583" 
d="M166 -8l-5 8q5 11 35 78t66 147.5t39 87.5q61 136 139 313h-149q-190 -3 -244 -5l-6 9q5 23 6 42l9 6q6 0 41.5 -0.5t42.5 -0.5h301q6 0 41 0.5t42 0.5l5 -8q-13 -28 -47.5 -104t-53.5 -116l-96 -223q-7 -19 -22 -55.5t-23 -54.5q-5 -14 -45 -117l-9 -6q-38 0 -67 -2z
" />
    <glyph glyph-name="eight" unicode="8" horiz-adv-x="583" 
d="M371 374l22 -5q60 -15 94 -56q39 -46 39 -118q0 -86 -61 -147.5t-175 -61.5q-105 0 -168.5 56t-63.5 147q0 68 39 119.5t122 62.5q-54 10 -81 31q-57 41 -57 120q0 78 57.5 124t153.5 46q92 0 148 -44.5t56 -123.5q0 -48 -24 -85.5t-70 -54.5q-7 -3 -31 -10zM227 335
q-39 -14 -70.5 -48t-31.5 -96q0 -69 45.5 -112t121.5 -43q85 0 129 47.5t40 116.5q-3 65 -47 104.5t-122 39.5q-36 0 -65 -9zM429 517q1 60 -37 93.5t-100 33.5q-64 0 -104.5 -33t-40.5 -93q0 -57 40 -91t102 -34q64 0 101 35t39 89z" />
    <glyph glyph-name="nine" unicode="9" horiz-adv-x="583" 
d="M80 84l11 4q61 -52 142 -52q69 0 122 39q32 24 52.5 57.5t30 76t12 70t4.5 68.5q-71 -88 -191 -88q-101 0 -155.5 61t-54.5 150q0 94 62 158t168 64q111 0 174 -81t63 -238q0 -165 -56 -262q-73 -126 -226 -126q-88 0 -158 42l-4 10q3 18 4 47zM455 409q-6 101 -37 153
q-47 79 -137 79q-46 0 -79.5 -16.5t-50.5 -43.5t-25 -55t-8 -58q0 -72 41.5 -113.5t112.5 -41.5q109 0 183 96z" />
    <glyph glyph-name="colon" unicode=":" horiz-adv-x="250" 
d="M193 7l-7 -7q-27 0 -78 -3l-8 7q2 26 2 39q0 14 -2 40l7 8q45 1 78 4l8 -7q-2 -38 0 -81zM193 424l-7 -7q-30 0 -78 -4l-8 8q2 26 2 39q0 14 -2 40l7 8q27 0 78 4l8 -7q-2 -38 0 -81z" />
    <glyph glyph-name="semicolon" unicode=";" horiz-adv-x="250" 
d="M194 94l6 -9q-35 -84 -80 -239l-7 -8q-20 0 -41 -1l-3 6q43 216 47 240l6 8q33 0 72 3zM205 424l-7 -7q-31 0 -79 -4l-7 8q1 13 1 39q0 27 -1 40l7 8q26 0 78 4l7 -7q-1 -39 1 -81z" />
    <glyph glyph-name="less" unicode="&#x3c;" horiz-adv-x="667" 
d="M667 61v-64l-667 322v70l667 320v-64l-600 -291z" />
    <glyph glyph-name="equal" unicode="=" horiz-adv-x="667" 
d="M667 232v-59h-667v59h667zM667 408v-59h-667v59h667z" />
    <glyph glyph-name="greater" unicode="&#x3e;" horiz-adv-x="667" 
d="M667 319l-667 -322v64l600 293l-600 291v64l667 -320v-70z" />
    <glyph glyph-name="question" unicode="?" horiz-adv-x="375" 
d="M208 198l-8 -9q-28 0 -46 -2l-8 7q-1 67 11 105.5t48 94.5l18 27q64 95 64 162q0 56 -37.5 92.5t-94.5 36.5q-63 0 -136 -50l-9 5q1 15 3 49l6 11q80 39 146 39q88 0 139 -51.5t51 -127.5q0 -34 -12 -69.5t-24.5 -57.5t-36.5 -59l-19 -30q-34 -51 -45.5 -85.5t-9.5 -87.5
zM228 7l-8 -7q-26 0 -78 -3l-7 7q0 6 0.5 19t0.5 20q0 6 -0.5 19.5t-0.5 20.5l7 8q44 1 78 4l7 -7q-1 -39 1 -81z" />
    <glyph glyph-name="at" unicode="@" horiz-adv-x="896" 
d="M790 66l27 -32q-160 -158 -365 -158q-55 0 -108 12.5t-103 40.5t-88 68.5t-61 101.5t-23 135q0 123 59 232.5t165.5 177.5t234.5 68q140 0 219.5 -79t79.5 -209q0 -87 -32.5 -169t-85.5 -132.5t-110 -50.5q-40 0 -62 26q-18 21 -18 67q-20 -28 -41 -48q-51 -45 -111 -45
q-19 0 -39 7t-40.5 23.5t-33.5 50t-13 80.5q0 109 63 195.5t145 86.5q34 0 65 -18q33 -22 55 -77l17 72h59l-33 -146q-29 -136 -29 -174q0 -21 8 -34t15 -15.5t13 -2.5q30 0 67.5 40t66 113t28.5 152q0 110 -68 176.5t-188 66.5q-110 0 -204.5 -59.5t-150 -160t-55.5 -216.5
q0 -100 48 -172.5t122.5 -106t164.5 -33.5q192 0 340 146zM548 347q1 59 -26.5 87t-65.5 28q-62 0 -104.5 -72.5t-42.5 -153.5q0 -34 9.5 -57.5t25 -34t28.5 -14.5t25 -4q31 0 61 21.5t50 55.5q40 64 40 144z" />
    <glyph glyph-name="A" unicode="A" horiz-adv-x="562" 
d="M562 9l-5 -7l-68 -2l-6 7q-29 111 -59 204l-8 24h-257l-20 -1l-12 -36q-33 -106 -55 -192l-8 -6h-59l-5 9q40 111 78 227l154 465l6 6l85 2l7 -5l54 -165l74 -222q57 -176 104 -308zM275 671l-120 -382q38 -1 114 -1q21 0 63 0.5t65 0.5z" />
    <glyph glyph-name="B" unicode="B" horiz-adv-x="583" 
d="M178 708l59 1q109 2 152 -12q39 -11 64.5 -33.5t35 -49.5t12 -42t2.5 -29q0 -37 -12 -68t-31 -48.5t-30.5 -26t-21.5 -12.5q-18 -8 -51 -17q34 -2 51 -5q65 -13 101 -58t36 -108q0 -88 -60 -142q-29 -26 -71.5 -38.5t-78 -15t-116.5 -4.5h-43l-87 -1l-7 6q3 86 3 148
q0 35 -1 104t-1 103q-2 238 -8 340l7 6zM152 54q128 1 166 3t69 13q44 15 68 49t24 80q0 56 -37 91q-23 22 -63 33.5t-67 13t-70 1.5q-15 0 -47 -0.5t-48 -0.5q0 -157 5 -283zM147 657v-267q147 -2 199 17q37 14 64.5 45.5t27.5 80.5q0 35 -13.5 60.5t-30 37.5t-43 18.5
t-40.5 7.5t-35 1q-2 0 -56 -0.5t-62 -0.5h-11z" />
    <glyph glyph-name="C" unicode="C" horiz-adv-x="604" 
d="M585 48l-5 -10q-24 -14 -36 -20q-66 -33 -162 -33q-161 0 -250 104.5t-89 260.5q0 71 22 136.5t63.5 118.5t109 84.5t150.5 31.5q47 0 86 -8t56.5 -15t45.5 -21l5 -8q-6 -25 -8 -53l-7 -5q-80 55 -178 55q-71 0 -126.5 -28.5t-87 -75.5t-47 -100.5t-15.5 -111.5
q0 -133 78 -221t203 -88q57 0 111 22q38 16 78 49l8 -5q-5 -31 -5 -59z" />
    <glyph glyph-name="D" unicode="D" horiz-adv-x="688" 
d="M82 706l135 1q13 0 38 0.5t37 0.5q46 0 79.5 -3.5t79 -15.5t83 -41t63.5 -74q47 -81 47 -200q0 -167 -88 -264q-35 -39 -76.5 -63t-91 -33.5t-80.5 -11.5t-84 -2h-42l-93 -1l-6 6q2 63 2 150q0 68 -2 204q-2 223 -8 342zM148 654v-321q0 -118 4 -281h67q96 0 156.5 13
t109.5 58q92 84 92 252q0 47 -8 87q-12 67 -49 111q-37 45 -93.5 64t-144.5 19q-10 0 -30 -0.5t-30 -0.5z" />
    <glyph glyph-name="E" unicode="E" horiz-adv-x="521" 
d="M479 3l-4 -3h-305l-81 -4l-7 7q2 128 2 155q0 272 -9 543l6 6l70 -1h179l141 2l6 -5l-3 -48l-8 -6l-263 3l-57 1v-258h99l210 2l6 -6l-2 -45l-9 -5q-80 2 -106 2q-68 0 -102 -1h-95l5 -288h87l240 4l4 -6z" />
    <glyph glyph-name="F" unicode="F" horiz-adv-x="458" 
d="M156 6l-6 -6l-61 -1l-6 6q2 138 2 159q0 121 -4 337q0 108 -5 200l6 6l77 -1h167l136 2l6 -5l-4 -48l-7 -6l-219 5h-92v-23l1 -119l1 -109l1 -17h43l215 4l6 -6l-4 -46l-6 -6l-199 2h-55q1 -167 7 -328z" />
    <glyph glyph-name="G" unicode="G" horiz-adv-x="688" 
d="M617 30l-5 -9q-100 -36 -204 -36q-215 0 -310 156q-54 88 -54 208q0 66 20 129.5t61 119t112.5 89.5t163.5 34q45 0 85 -8.5t59 -16t48 -22.5l5 -8l-8 -53l-7 -4q-39 30 -74 41q-52 15 -105 15q-76 0 -134 -26t-91.5 -71t-50 -99t-16.5 -116q0 -59 16.5 -112.5
t50.5 -99.5t94 -73.5t140 -27.5q72 0 138 23v80v59q0 62 -5 135l5 5l64 2l6 -6q-5 -145 -5 -209q0 -66 1 -99z" />
    <glyph glyph-name="H" unicode="H" horiz-adv-x="688" 
d="M613 5l-6 -5l-61 -2l-6 6v352q-116 2 -175 2q-69 0 -216 -3q0 -139 6 -350l-6 -5l-60 -2l-6 6v356q0 175 -7 340l6 6l60 2l6 -6v-291q187 -2 391 2q-1 148 -7 287l6 6l61 2l6 -7q-2 -354 8 -696z" />
    <glyph glyph-name="I" unicode="I" horiz-adv-x="229" 
d="M155 6l-6 -6l-62 -1l-6 6q2 114 2 161q0 318 -9 535l6 5l62 2l6 -6q0 -39 -0.5 -117t-0.5 -117q0 -158 8 -462z" />
    <glyph glyph-name="J" unicode="J" horiz-adv-x="333" 
d="M248 708l6 -6q-3 -101 -3 -185q0 -22 2 -154.5t2 -157.5q0 -95 -16 -133q-36 -79 -146 -79q-30 0 -83 16l-5 7l-2 51l8 5q40 -24 82 -24q31 0 51 10t28.5 28.5t11 31t3.5 32.5q2 26 2 83q0 41 -2 121q-1 58 -3.5 173.5t-3.5 173.5l6 5z" />
    <glyph glyph-name="K" unicode="K" horiz-adv-x="562" 
d="M154 6l-5 -5l-60 -2l-6 6q2 134 2 158q0 269 -9 538l5 6l60 1l6 -6v-325l135 150q121 134 155 176l9 3h73l3 -6q-45 -46 -181 -191l-119 -129l55 -60q150 -168 285 -311l-3 -8h-40l-36 -3l-11 5q-165 198 -326 369z" />
    <glyph glyph-name="L" unicode="L" horiz-adv-x="458" 
d="M446 4l-6 -6l-72 2h-195l-84 -2l-6 6q0 36 0.5 106t0.5 106l-1 129l-2 131q-1 140 -5 224l6 6l63 2l6 -6q-3 -173 -3 -295q0 -118 4 -354h58q129 1 234 6l6 -7z" />
    <glyph glyph-name="M" unicode="M" horiz-adv-x="813" 
d="M745 7l-5 -7q-35 0 -61 -2l-6 7v117q0 32 -2 120l-8 430l-147 -447q-12 -36 -72 -219l-8 -6q-39 1 -81 0l-7 7l-4 13q-20 66 -35.5 118.5t-24.5 81.5l-134 439l-16 -367q-8 -207 -9 -285l-6 -7q-29 0 -55 -1l-6 8q5 47 9 124q2 20 4.5 60.5t3.5 60.5l12 219q7 149 9 230
l5 5q50 0 92 2l7 -6q0 -2 7 -24t18.5 -60t20.5 -67l154 -503l154 464q2 6 20.5 58.5t21.5 63.5q12 31 23 67l7 5q32 0 88 3l7 -8l8 -321q10 -276 16 -373z" />
    <glyph glyph-name="N" unicode="N" horiz-adv-x="688" 
d="M612 7l-6 -6l-89 -2l-8 5q-19 29 -95 161l-277 491l3 -297q1 -163 7 -352l-6 -7l-53 -1l-6 6q0 37 0.5 111.5t0.5 112.5q0 160 -8 472l6 6l88 2l9 -6q19 -30 46 -78q30 -52 119 -203l209 -371q-2 374 -11 651l5 5l53 2l6 -5q-2 -104 -2 -158q0 -327 9 -539z" />
    <glyph glyph-name="O" unicode="O" horiz-adv-x="729" 
d="M685 353q0 -169 -84.5 -268.5t-232.5 -99.5q-139 0 -217 75q-107 101 -107 295q0 71 18 134.5t55.5 116.5t102 84t149.5 31q158 0 237 -100.5t79 -267.5zM618 353q0 145 -57 224q-67 91 -188 91q-104 0 -165 -53q-40 -36 -68.5 -104t-28.5 -157q0 -40 6 -79.5t23.5 -83.5
t44.5 -77t73 -54.5t106 -21.5q73 0 122 27q64 34 98.5 111t33.5 177z" />
    <glyph glyph-name="P" unicode="P" 
d="M155 6l-5 -6l-62 -2l-5 7q2 126 2 158q0 20 -1.5 147.5t-1.5 151.5q-2 141 -7 238l7 5l132 3l35 1q52 -1 78.5 -3t64 -15t65.5 -38q60 -56 60 -145q0 -103 -76 -164q-32 -25 -81 -38.5t-86 -15.5t-102 -3h-23q1 -152 6 -281zM147 654v-314q125 0 178 10.5t91 57.5
q34 42 34 102q0 66 -42 103q-45 43 -165 43q-9 0 -28.5 -0.5t-29.5 -0.5z" />
    <glyph glyph-name="Q" unicode="Q" horiz-adv-x="729" 
d="M419 -29l-45 15q-49 0 -74 4q-35 5 -68.5 18.5t-68 41.5t-60.5 67t-42.5 99.5t-16.5 134.5q0 152 66 245q66 96 191 118q34 7 71 7q122 0 199 -65q114 -96 114 -299q0 -152 -73 -253q-21 -30 -44.5 -50t-39 -28.5t-44.5 -20.5q131 -44 228 -71l3 -9l-40 -46l-11 -4
q-111 49 -245 96zM617 352q0 53 -11 110q-20 100 -81.5 153t-156.5 53q-93 0 -155 -49q-47 -38 -75 -109.5t-28 -154.5q0 -137 61 -222q68 -95 194 -95t194 95q58 81 58 219z" />
    <glyph glyph-name="R" unicode="R" horiz-adv-x="562" 
d="M81 707l144 3q126 2 173 -14q39 -14 65 -40t35.5 -55.5t12.5 -46t3 -29.5q0 -77 -53 -130q-49 -51 -146 -64l73 -96q52 -68 68 -88q49 -66 107 -137l-4 -9h-33q-7 -1 -19 -2t-19 -1l-10 6q-43 60 -148 200q-68 91 -91 119l-91 -1q1 -185 7 -316l-6 -6l-61 -1l-6 6
q2 69 2 157q0 309 -9 539zM147 654v-280q99 1 140.5 4.5t73.5 16.5q87 35 87 129q0 32 -9 56t-26.5 37.5t-34 22.5t-41.5 12t-38 4t-34 1q-22 0 -64 -1.5t-54 -1.5z" />
    <glyph glyph-name="S" unicode="S" horiz-adv-x="521" 
d="M59 107l10 2q27 -25 40 -33q56 -37 130 -37q76 0 122.5 40.5t46.5 103.5q0 54 -32 84.5t-98 59.5l-80 33q-33 16 -51 26.5t-44.5 32t-39 51t-12.5 67.5q0 43 19.5 81.5t54.5 63.5q57 39 152 39q92 0 166 -40l6 -8l-6 -49l-10 -5q-25 15 -40 23t-48 17t-70 9
q-49 0 -83.5 -14t-49.5 -36t-21 -40.5t-6 -36.5q0 -27 10 -48t31.5 -36.5t40 -25t51.5 -22.5l71 -30q32 -15 51 -26t47 -34.5t42 -56.5t14 -76q0 -82 -60.5 -141.5t-172.5 -59.5q-109 0 -181 51l-4 10z" />
    <glyph glyph-name="T" unicode="T" horiz-adv-x="500" 
d="M292 7l-6 -7l-60 -1l-7 6q2 208 2 313q0 113 -2 335l-212 -4l-7 6l4 49l7 5l103 -3h237l143 3l6 -5l-4 -50l-6 -5q-123 5 -206 5q0 -326 8 -647z" />
    <glyph glyph-name="U" unicode="U" horiz-adv-x="667" 
d="M581 708l6 -6v-272l-1 -132q0 -109 -12 -153q-19 -70 -83.5 -115t-162.5 -45q-67 0 -118 21q-66 26 -99 85q-14 25 -21.5 61t-8.5 60.5t-1 69.5l2 299q0 62 -2 119l6 7l64 2l5 -6q-6 -280 -6 -384q0 -87 4.5 -128t21.5 -71q45 -79 158 -79q94 0 143 52q25 26 33 53
q12 32 14.5 66t2.5 127q0 206 -5 361l6 7z" />
    <glyph glyph-name="V" unicode="V" 
d="M316 7l-7 -7l-81 -2l-7 5l-68 218l-85 270l-66 207l4 7l66 5l5 -5q29 -110 74 -260l122 -399l146 474q30 97 52 182l7 6h59l5 -7l-79 -233l-78 -242z" />
    <glyph glyph-name="W" unicode="W" horiz-adv-x="833" 
d="M672 6l-7 -6l-84 -2l-7 7l-43 176l-114 489l-89 -388l-64 -276l-8 -6l-84 -2l-7 4l-53 235l-35 147l-76 316l5 6l63 3l6 -6q28 -144 71 -339l71 -318l106 457l45 197l7 6q48 0 88 2l7 -5l55 -235l100 -421l86 393l54 261l6 5h55l6 -6l-53 -218l-55 -233
q-29 -126 -52 -243z" />
    <glyph glyph-name="X" unicode="X" horiz-adv-x="500" 
d="M386 520l-95 -151l90 -162q62 -110 117 -198l-6 -9h-68l-8 4q-30 60 -98 188l-65 122l-64 -106q-90 -152 -117 -203l-7 -5h-65l-5 8q94 144 105 162l123 192l-76 130q-84 151 -119 207l5 8l66 2l8 -4q24 -48 64 -124l88 -163l41 68q58 97 124 216l7 5h64l5 -7
q-62 -96 -114 -180z" />
    <glyph glyph-name="Y" unicode="Y" horiz-adv-x="500" 
d="M284 6l-6 -6l-60 -2l-7 7q3 87 3 175q0 36 -2 106l-103 203l-108 208l5 8l65 5l9 -6q29 -67 63 -137l107 -222l63 121q60 117 115 236l8 5h58l6 -8l-114 -209l-107 -200z" />
    <glyph glyph-name="Z" unicode="Z" horiz-adv-x="500" 
d="M486 3l-6 -5l-89 2h-226l-152 -2l-4 8q79 133 164 284l112 197q74 129 95 169l-99 -1l-238 -6l-6 6l4 47l6 6l95 -2h209l126 1l4 -6q-52 -85 -108 -185l-264 -464h133q127 1 242 5l6 -7z" />
    <glyph glyph-name="bracketleft" unicode="[" horiz-adv-x="292" 
d="M173 438v-320q3 -235 7 -284h103l8 -8q-3 -12 -4 -33l-7 -8q-67 0 -165 -2l-8 8q3 174 2 328v307q2 204 -4 329l7 8q99 -2 173 2l7 -7q-4 -21 -5 -39l-8 -8q-51 1 -103 1q-3 -136 -3 -274z" />
    <glyph glyph-name="backslash" unicode="\" horiz-adv-x="438" 
d="M382 -138l-10 7q-6 14 -8 22q-43 111 -94 236l-125 301q-90 218 -144 328l7 9q31 -1 57 0l10 -7q48 -132 120 -305l119 -288q70 -168 131 -294l-6 -9q-5 0 -15 0.5t-16 0.5q-13 0 -26 -1z" />
    <glyph glyph-name="bracketright" unicode="]" horiz-adv-x="292" 
d="M119 109v321q0 58 -2 176q-1 69 -5 108q-55 1 -104 0l-7 8q3 21 4 33l7 8q67 0 165 2l7 -8q-2 -187 -1 -328v-308q-2 -204 4 -329l-7 -8q-99 2 -173 -2l-7 7q5 32 5 39l8 8q51 -1 103 -1q3 137 3 274z" />
    <glyph glyph-name="asciicircum" unicode="^" horiz-adv-x="729" 
d="M399 706l174 -356h-76l-131 274l-134 -274h-76l180 356h63z" />
    <glyph glyph-name="underscore" unicode="_" horiz-adv-x="500" 
d="M510 -75v-50h-520v50h520z" />
    <glyph glyph-name="grave" unicode="`" horiz-adv-x="292" 
d="M164 723l7 -6q10 -32 23 -67q11 -28 18.5 -47t9.5 -25l-5 -9q-22 0 -41 -2l-10 7q-39 60 -96 139l4 9q50 0 90 1z" />
    <glyph glyph-name="a" unicode="a" horiz-adv-x="479" 
d="M89 437l3 47l5 7q83 33 148 33q91 0 133 -47q21 -23 25 -48t4 -104v-62q-2 -133 6 -256l-6 -7l-53 -3l-7 6l-1 35q-68 -50 -142 -50q-76 0 -123 44.5t-47 118.5q0 75 52 121q46 41 172 61l88 13v13q-2 50 -9 66q-23 46 -98 46q-45 0 -73.5 -8.5t-68.5 -29.5zM346 296
l-54 -8q-70 -13 -99 -22t-49 -24q-47 -35 -47 -88q0 -44 30.5 -78.5t87.5 -34.5q30 0 56.5 9t40 18.5t34.5 26.5v201z" />
    <glyph glyph-name="b" unicode="b" 
d="M124 794l6 -5q-4 -163 -2 -315q21 15 46 26q57 22 111 22q74 0 133 -48q40 -34 62 -87t22 -111q0 -62 -24.5 -116.5t-64.5 -89.5q-33 -30 -76.5 -46t-70 -19t-72.5 -5l-122 -2l-6 6q1 81 1 244q0 84 -2 250q-3 205 -10 278l6 7zM177 53h3q104 0 166 39q45 28 68 78
t23 104q0 89 -49.5 141t-119.5 52q-45 0 -92 -21q-22 -10 -48 -31v-361q9 0 25 -0.5t24 -0.5z" />
    <glyph glyph-name="c" unicode="c" horiz-adv-x="438" 
d="M420 100l10 -4l-6 -59l-8 -12q-58 -37 -138 -37q-99 0 -168.5 66t-69.5 196q0 120 65.5 197t184.5 77q68 0 127 -34l5 -9l-7 -56l-9 -4q-55 48 -120 48q-70 0 -120 -46q-63 -58 -63 -172q0 -106 53.5 -157.5t124.5 -51.5q79 0 139 58z" />
    <glyph glyph-name="d" unicode="d" 
d="M414 4v46q-66 -57 -150 -57q-104 0 -164.5 74t-60.5 181q0 123 77 196q76 73 247 73q26 0 45 -1q-2 203 -9 261l7 6q27 4 61 12l6 -6q-2 -182 -2 -271q0 -352 8 -513l-6 -5q-29 0 -53 -2zM413 109v33q0 11 -2 140t-2 182q-34 2 -53 2q-89 0 -142 -23q-110 -50 -110 -191
q0 -88 45.5 -146t125.5 -58q81 0 138 61z" />
    <glyph glyph-name="e" unicode="e" horiz-adv-x="521" 
d="M487 269l-6 -6h-379q2 -67 22 -110t54.5 -69.5t61.5 -33t55 -6.5q93 0 168 66l8 -5l-4 -57l-5 -10q-28 -16 -45.5 -24t-52 -16.5t-74.5 -8.5q-119 0 -185 74.5t-66 191.5q0 120 63 194.5t172 74.5q108 0 166 -76q21 -27 32 -63t12.5 -58t2.5 -58zM106 314h315
q-4 63 -26 97q-42 64 -123 64q-76 0 -121 -52q-33 -39 -45 -109z" />
    <glyph glyph-name="f" unicode="f" horiz-adv-x="271" 
d="M261 459l-105 2q0 -243 7 -456l-6 -5l-57 -2l-7 6v457l-86 -1l-7 6l2 42l6 7l85 -3l-2 67q-1 13 -1 39q0 83 36 118q38 39 110 39q16 0 43 -5l5 -8l-3 -38l-8 -7q-19 6 -36 6q-24 0 -40.5 -7t-24.5 -19t-12.5 -28.5t-4 -36t0.5 -40.5v-81l107 2l8 -8l-4 -39z" />
    <glyph glyph-name="g" unicode="g" horiz-adv-x="479" 
d="M192 166l-32 -54l90 -27q100 -29 117 -38q93 -41 93 -129q0 -79 -63.5 -124.5t-152.5 -45.5q-83 0 -147 42.5t-64 119.5q0 37 19 70t35 47.5t42 33.5l-44 19l-3 10q33 48 56 90q-21 13 -32.5 22t-28 27.5t-24.5 44.5t-8 60q0 84 60 136q26 21 61 32t59 12.5t69 1.5l45 -1
h132l4 -7l-4 -42l-7 -6l-100 6q67 -53 67 -134q0 -76 -54.5 -124.5t-130.5 -48.5q-19 0 -54 7zM175 46q-23 -19 -36 -31.5t-28.5 -40.5t-15.5 -57q0 -44 37.5 -81.5t115.5 -37.5q73 0 110 34t37 78q0 22 -7.5 39t-23 28t-22.5 15t-22 10q-20 7 -145 44zM369 339
q-1 52 -34 89t-92 37q-65 0 -100.5 -38.5t-35.5 -93.5q0 -62 39.5 -94t91.5 -32q62 0 97 39t34 93z" />
    <glyph glyph-name="h" unicode="h" 
d="M141 6l-6 -6l-58 -1l-6 6v348q0 145 -1 218q-1 119 -9 207l6 6l63 10l6 -6q-4 -136 -3 -328q95 64 181 64q52 0 93 -26q27 -18 40.5 -46t16 -53t4.5 -86l2 -102q1 -125 5 -205l-5 -6l-60 -2l-5 7q0 33 0.5 99t0.5 100q0 112 -2 147q-3 59 -26 85q-29 35 -86 35
q-73 0 -159 -68q0 -189 8 -397z" />
    <glyph glyph-name="i" unicode="i" horiz-adv-x="208" 
d="M143 6l-6 -6l-60 -1l-5 5q1 66 1 127q0 232 -9 370l6 6l60 9l6 -6q-3 -69 -3 -108q0 -183 10 -396zM139 689l-7 -8l-64 -6l-8 8l1 62l8 8l64 6l7 -8z" />
    <glyph glyph-name="j" unicode="j" horiz-adv-x="208" 
d="M133 517l6 -5q-3 -54 -3 -90q0 -21 1.5 -151t1.5 -155l1 -74q2 -82 -1.5 -125t-18.5 -73q-33 -63 -120 -74l-6 8l-10 37l5 7q53 6 70.5 34.5t17.5 110.5q0 13 -1 93.5t-1 95.5q-2 222 -9 344l7 6zM142 689l-7 -8l-64 -6l-8 8l1 62l8 8l64 6l7 -8z" />
    <glyph glyph-name="k" unicode="k" horiz-adv-x="438" 
d="M141 6l-5 -6l-58 -2l-6 7v292v128q0 217 -9 353l6 6l62 9l6 -6q-3 -109 -3 -171v-307l90 92q4 5 28.5 30t28.5 30q24 24 41 46l12 5q6 0 17.5 -0.5t17.5 -0.5t18 0.5t18 0.5l4 -9q-55 -50 -161 -154l-42 -42l92 -113q134 -162 156 -185l-5 -8q-5 0 -13.5 0.5t-12.5 0.5
t-15.5 -1t-21.5 -2l-10 -1l-10 5q-30 43 -143 185l-88 110q0 -143 6 -292z" />
    <glyph glyph-name="l" unicode="l" horiz-adv-x="208" 
d="M142 6l-6 -6l-58 -1l-6 6v307q0 324 -10 466l6 6l63 10l6 -6q-3 -165 -3 -268q0 -319 8 -514z" />
    <glyph glyph-name="m" unicode="m" horiz-adv-x="854" 
d="M143 6l-7 -6l-58 -2l-6 6q2 96 2 117q0 51 -2 151q-1 135 -10 229l6 7l61 10l6 -7l-2 -57q96 70 172 70q31 0 55 -8t39.5 -23t22 -23.5t14.5 -22.5q27 21 45.5 33t60.5 28t84 16q53 0 90 -23q40 -26 53 -69.5t13 -126.5v-28q-1 -119 5 -271l-6 -6l-55 -2l-7 6q3 93 3 276
q0 69 -5.5 102.5t-21.5 52.5q-30 33 -86 33q-32 0 -64.5 -12.5t-50 -23.5t-43.5 -31q6 -46 6 -97l1 -25q1 -154 7 -273l-6 -6l-57 -2l-6 7q2 74 2 112q0 178 -5 234q-6 58 -28 84q-28 32 -78 32q-68 0 -153 -66q1 -202 9 -395z" />
    <glyph glyph-name="n" unicode="n" 
d="M141 6l-6 -6l-59 -2l-5 6q2 110 2 123q0 53 -2 157q-1 129 -9 217l5 7l61 10l6 -6l-4 -52q32 20 49.5 29.5t56 22t75.5 12.5q78 0 120 -47q17 -19 25.5 -45.5t9.5 -48t2 -70.5l2 -102q1 -99 6 -205l-6 -6l-60 -2l-5 7q2 94 2 113q0 127 -4 233q-3 58 -24 84
q-29 34 -85 34q-77 0 -162 -67q1 -183 9 -396z" />
    <glyph glyph-name="o" unicode="o" 
d="M502 261q1 -140 -65.5 -206.5t-165.5 -66.5q-117 0 -174 74.5t-57 192.5q0 100 35 160q63 109 202 109q60 0 104.5 -22.5t66.5 -52t35 -71.5t16 -66.5t3 -50.5zM435 261q-2 67 -18 110q-37 101 -145 101q-50 0 -85 -20.5t-51 -55t-22.5 -68t-6.5 -72.5q0 -16 1 -29t5 -42
t14.5 -51t27.5 -45t46.5 -35.5t68.5 -12.5q91 0 129 61.5t36 158.5z" />
    <glyph glyph-name="p" unicode="p" 
d="M57 503l5 6l60 9l7 -6l-1 -47q72 59 152 59q101 0 162 -70t61 -178q0 -102 -57 -174q-38 -50 -97.5 -77t-157.5 -27q-25 0 -62 3q0 -90 7 -230l-6 -6h-61l-6 6q3 174 3 348q0 200 -9 384zM128 404v-349q32 -4 56 -4q104 0 165 43q85 60 85 178q0 34 -8.5 65.5t-26 61.5
t-51 48t-78.5 18q-49 0 -94 -24q-23 -12 -48 -37z" />
    <glyph glyph-name="q" unicode="q" 
d="M418 -235l-5 6q3 93 3 154q0 19 -0.5 57t-0.5 57q-66 -50 -147 -50q-97 0 -163 65.5t-66 180.5q0 107 58 182q32 41 81.5 63t82.5 26t88 6l124 2l7 -6q-6 -114 -6 -189q0 -113 4 -309q1 -140 7 -238l-7 -7h-60zM413 97v360q-36 3 -58 3q-33 0 -60 -4q-56 -5 -95 -28
q-49 -29 -73 -79.5t-24 -105.5q0 -98 51.5 -148.5t123.5 -50.5q76 0 135 53z" />
    <glyph glyph-name="r" unicode="r" horiz-adv-x="292" 
d="M297 505l-8 -53l-8 -6q-23 13 -42 13q-36 0 -62 -26q-24 -24 -32 -64.5t-8 -118.5q0 -31 6 -244l-6 -6l-60 -1l-6 6q3 100 3 170q0 226 -9 326l6 6l59 9l6 -6l-1 -79q8 23 19 39q35 52 91 52q18 0 45 -10z" />
    <glyph glyph-name="s" unicode="s" horiz-adv-x="417" 
d="M40 93l8 3q26 -25 48 -35q47 -22 98 -22q49 0 87.5 24t38.5 74q0 23 -7 39t-24.5 26.5t-31.5 15.5t-43 13l-48 14q-27 8 -43 15t-39.5 22.5t-35 40.5t-11.5 60q0 56 47 98.5t140 42.5q54 0 131 -30l4 -7l-7 -58l-5 -2q-57 43 -131 43q-57 0 -86.5 -25.5t-29.5 -63.5
q0 -27 19 -48q18 -18 83 -37l52 -14q18 -5 28 -9t32 -15.5t35 -25t23.5 -36.5t10.5 -51q0 -62 -46.5 -109.5t-148.5 -47.5q-79 0 -149 39l-5 8q5 23 6 58z" />
    <glyph glyph-name="t" unicode="t" horiz-adv-x="271" 
d="M260 460l-112 2v-267q0 -51 1 -74q2 -38 14.5 -56t48.5 -18q20 0 46 11l8 -5l-3 -45l-7 -9q-30 -6 -53 -6q-34 0 -57.5 10t-35 23t-17.5 38.5t-7 42.5t-1 50l1 52v253l-81 -2l-5 7l2 41l6 6l79 -2l-4 123l7 6l58 14l6 -6l-5 -137l115 3l5 -7l-2 -43z" />
    <glyph glyph-name="u" unicode="u" 
d="M476 6l-6 -6l-55 -4l-7 6l2 48q-71 -62 -170 -62q-83 0 -127 48q-19 21 -29 50t-11.5 47t-2.5 51v26v86v87q0 46 -4 123l6 7l60 2l6 -6q-4 -127 -4 -285q0 -64 6 -95t25 -52q32 -37 90 -37q13 0 39 4q55 11 114 61q0 221 -8 400l6 8q28 -1 58 3l6 -7q-2 -124 -2 -185
q0 -137 8 -318z" />
    <glyph glyph-name="v" unicode="v" horiz-adv-x="438" 
d="M267 6l-7 -6l-82 -2l-9 6l-110 334l-58 163l5 9l63 4l8 -5q27 -100 90 -298l54 -169l65 201q44 134 78 261l9 8h58l6 -7l-71 -198l-50 -149z" />
    <glyph glyph-name="w" unicode="w" horiz-adv-x="708" 
d="M599 109l-25 -100l-8 -7l-80 -3l-7 6l-38 142l-90 325l-64 -251q-33 -122 -54 -215l-6 -5l-81 -2l-6 5l-37 138l-57 205l-45 155l5 8l61 2l6 -6q14 -65 35 -148l78 -316l84 317l37 145l6 6l85 2l6 -7q22 -89 46 -171l80 -285l68 271q27 106 44 185l6 8h54l6 -7l-59 -209z
" />
    <glyph glyph-name="x" unicode="x" horiz-adv-x="396" 
d="M295 374l-66 -105l43 -71q32 -53 121 -190l-4 -8l-65 -3l-10 5q-36 68 -67 120l-53 91l-61 -97q-32 -53 -63 -110l-11 -6h-60l-5 6q32 46 49 72q14 21 69 106l50 78l-73 122q-13 22 -39 63t-36 58l4 7l64 3l10 -5q13 -28 22 -44q2 -3 7.5 -12.5t16 -28.5t22.5 -39l38 -68
l35 59q50 86 72 130l8 6h61l5 -7q-7 -10 -20.5 -32t-26 -41t-24.5 -38t-13 -21z" />
    <glyph glyph-name="y" unicode="y" horiz-adv-x="438" 
d="M374 344l-72 -196q-90 -245 -117 -337q-4 -11 -13 -46l-7 -6l-62 1l-6 6q36 80 72 175l24 69q-59 158 -139 361q-26 67 -54 132l6 9l59 5l9 -7l81 -230l70 -192l75 213q32 94 65 204l10 8h56l7 -8q-30 -70 -64 -161z" />
    <glyph glyph-name="z" unicode="z" horiz-adv-x="417" 
d="M396 5l-9 -7l-82 2h-147l-137 -1l-3 7l133 214l149 243l-73 -1l-179 -2l-6 6l4 40l7 7l83 -1h164l91 2l6 -7l-124 -199l-157 -258h65l210 4l7 -6z" />
    <glyph glyph-name="braceleft" unicode="{" horiz-adv-x="354" 
d="M84 260v27q15 6 22.5 10t18 15.5t17.5 28.5q11 27 11 119v119q1 38 2 55.5t9 43t23 43.5q21 24 46 31.5t79 12.5v-32q-63 -19 -79 -52.5t-16 -113.5v-78q-1 -92 -4.5 -123t-19.5 -54q-20 -27 -57 -38q38 -13 57 -39q16 -23 19.5 -54t4.5 -123v-78q0 -80 16 -113.5
t79 -52.5v-32q-54 5 -79 12.5t-46 31.5q-15 18 -23 43.5t-9 43t-2 55.5v119q0 91 -11 119q-7 17 -17.5 28.5t-18 15.5t-22.5 10z" />
    <glyph glyph-name="bar" unicode="|" horiz-adv-x="229" 
d="M144 750v-1000h-59v1000h59z" />
    <glyph glyph-name="braceright" unicode="}" horiz-adv-x="354" 
d="M270 287v-27q-15 -6 -22.5 -10t-18 -15.5t-17.5 -28.5q-11 -28 -11 -119v-119q-1 -38 -2 -55.5t-9 -43t-23 -43.5q-21 -24 -46 -31.5t-79 -12.5v32q63 19 79 52.5t16 113.5v78q1 92 4.5 123t19.5 54q20 27 57 38q-38 13 -57 39q-16 23 -19.5 54t-4.5 123v78
q0 80 -16 113.5t-79 52.5v32q54 -5 79 -12.5t46 -31.5q15 -18 23 -43.5t9 -43t2 -55.5v-119q0 -92 11 -119q7 -17 17.5 -28.5t18 -15.5t22.5 -10z" />
    <glyph glyph-name="asciitilde" unicode="~" horiz-adv-x="729" 
d="M564 356l31 -55q-61 -77 -128 -77q-34 0 -97 31l-29 14q-52 25 -83 25q-27 0 -43 -12.5t-48 -52.5l-33 54q51 80 123 80q39 0 113 -35l32 -15q47 -20 65 -20q21 0 41.5 11.5t30.5 22.5t25 29z" />
    <glyph glyph-name="exclamdown" unicode="&#xa1;" horiz-adv-x="250" 
d="M56 745l7 7q30 0 78 4l8 -8q-2 -26 -2 -39q0 -14 2 -40l-7 -8q-27 0 -78 -4l-8 7q2 38 0 81zM74 560l5 6q16 0 43 3l6 -7q0 -80 6 -272.5t12 -284.5l-5 -6q-36 0 -73 -2l-4 7q0 14 2 40q10 183 10 410q0 60 -2 106z" />
    <glyph glyph-name="cent" unicode="&#xa2;" horiz-adv-x="479" 
d="M433 99l6 -3q-3 -22 -6 -60l-7 -11q-61 -39 -136 -39q-27 0 -59 6q-2 -10 -7 -33.5t-9 -44.5l-6 -7q-5 0 -41 -2l-6 8q16 56 25 92q-41 18 -68 43q-78 74 -78 206q0 114 63.5 195t174.5 81q5 0 15 -0.5t15 -0.5q8 37 14 73l7 5q22 0 40 2l7 -6q-9 -32 -22 -80
q43 -11 75 -35l3 -9q-6 -27 -8 -55l-9 -3q-33 36 -72 51l-102 -427q24 -6 44 -6q82 0 147 60zM200 63l98 417q-22 2 -25 2q-75 0 -123 -66.5t-48 -167.5q0 -73 30 -118.5t68 -66.5z" />
    <glyph glyph-name="sterling" unicode="&#xa3;" 
d="M440 324l-7 -5q-37 2 -241 2q5 -60 5 -79q0 -86 -41 -191h63q173 3 272 7l5 -6q-1 -13 -3 -46l-7 -7q-19 1 -109 1h-205q-30 0 -92 -2l-5 8q60 100 60 232q0 26 -5 84q-46 -1 -79 -3l-5 6q3 15 4 41l6 4q39 -1 68 0l-3 21q-9 67 -9 95q0 96 64 151t151 55q72 0 159 -41
l5 -10q-3 -21 -5 -49l-7 -3q-79 51 -144 51q-71 0 -118 -45q-19 -18 -29 -41.5t-11.5 -39t-1.5 -40.5q0 -28 9 -103q156 -2 256 4l4 -5q-1 -12 -2.5 -27t-1.5 -19z" />
    <glyph glyph-name="currency" unicode="&#xa4;" horiz-adv-x="667" 
d="M610 569l-74 -73q54 -71 54 -158q0 -85 -55 -156l74 -75l-46 -45l-73 75q-26 -18 -41.5 -27t-47 -18t-68.5 -9t-67 8.5t-46.5 18t-42.5 27.5l-74 -73l-45 45l74 73q-19 29 -27.5 44t-18 46.5t-9.5 67.5q0 84 55 156l-73 73l45 45l73 -73q24 17 39.5 26.5t48 19t70.5 9.5
q80 0 156 -54l73 73zM529 340q0 87 -57.5 142t-135.5 55q-82 0 -140 -55t-58 -143q0 -82 56.5 -139.5t140.5 -57.5q81 0 137.5 56t56.5 142z" />
    <glyph glyph-name="yen" unicode="&#xa5;" horiz-adv-x="479" 
d="M424 186l-6 -6q-16 1 -57 1q-46 0 -93 1q2 -105 4 -176l-6 -6q-33 0 -57 -2l-7 6q2 42 2 178h-49h-39q-33 0 -59 -1l-7 8q4 27 6 38l7 7q11 0 141 -2q0 30 -1 42l-23 46h-72q-33 0 -51 -1l-7 8q5 30 6 38l7 7q4 0 37 -0.5t54 -0.5l-50 97q-17 34 -51 100q-28 49 -53 99
l5 8q25 1 62 5l9 -6q38 -83 61 -131l103 -212l60 115q71 134 110 227l9 4q5 -1 28 -0.5t27 0.5l5 -7q-3 -5 -25 -45t-26 -48q-11 -19 -58 -107l-53 -99h63q28 0 43 2l7 -7q-1 -9 -2 -16l-2 -14t-2 -12l-6 -5q-41 0 -128 1l-23 -42v-46h59h42q15 0 55 2l7 -6q-2 -10 -3.5 -23
t-2.5 -19z" />
    <glyph glyph-name="brokenbar" unicode="&#xa6;" horiz-adv-x="229" 
d="M85 -191v381h60v-381h-60zM145 308h-60v381h60v-381z" />
    <glyph glyph-name="section" unicode="&#xa7;" horiz-adv-x="500" 
d="M269 486l66 -38q31 -18 47.5 -28.5t37.5 -29t30.5 -40t9.5 -47.5q0 -60 -45 -103q-27 -27 -78 -49q21 -13 31 -20.5t27 -24t25 -38.5t8 -49q0 -73 -55.5 -121t-144.5 -48t-174 49l-4 12q4 23 5 56l8 3q72 -65 168 -65q67 0 98.5 32.5t31.5 75.5q0 38 -21.5 58t-86.5 56
l-82 44q-35 21 -53.5 33.5t-40 32t-30.5 41.5t-9 49q0 26 10 49.5t22 38.5t33 29.5t32 20l29 14.5q-72 47 -72 124q0 68 49 108.5t128 40.5q78 0 144 -36l5 -9q-5 -27 -6 -54l-9 -6q-56 49 -131 49q-52 0 -83 -25.5t-31 -66.5q0 -36 22.5 -57t88.5 -61zM229 211l60 -32
q45 16 75 45.5t30 68.5q0 34 -27.5 59.5t-104.5 67.5l-52 29q-39 -13 -62 -32q-45 -35 -45 -81q0 -21 8 -37.5t29 -32.5t37.5 -26t51.5 -29z" />
    <glyph glyph-name="dieresis" unicode="&#xa8;" horiz-adv-x="292" 
d="M275 603l-8 -8q-21 0 -64 -3l-7 8q1 36 0 66l8 8q24 0 64 3l7 -8q-1 -34 0 -66zM95 603l-7 -8q-20 0 -64 -3l-8 8q2 35 1 66l8 8q23 0 64 3l7 -8q-2 -33 -1 -66z" />
    <glyph glyph-name="copyright" unicode="&#xa9;" horiz-adv-x="833" 
d="M773 351q0 -104 -57 -195q-45 -70 -124.5 -114.5t-175.5 -44.5q-143 0 -249 101t-106 254q0 150 103.5 253.5t253.5 103.5q149 0 252 -103t103 -255zM741 351q1 134 -91.5 230t-231.5 96q-135 0 -230 -94.5t-95 -231.5q0 -133 94 -227.5t231 -94.5q131 0 226.5 91
t96.5 231zM568 253l42 -36q-33 -41 -68 -61q-56 -33 -120 -33q-93 0 -161 64t-68 167q0 97 66 164.5t166 67.5q107 0 185 -93l-42 -38q-18 21 -31.5 33t-44.5 27t-66 15q-73 0 -124 -50t-51 -124q0 -78 52 -127.5t123 -49.5q78 0 142 74z" />
    <glyph glyph-name="ordfeminine" unicode="&#xaa;" horiz-adv-x="313" 
d="M271 376l-6 -8q-28 0 -38 -1l-7 6v16l-1 -1q-49 -27 -86 -27q-49 0 -81 29t-32 79q0 28 11 49t24.5 33t37 20.5t37 11.5t37.5 7l53 8v9q-1 15 -2 23t-7 19t-20.5 16t-38.5 5q-42 0 -88 -25l-9 5q2 24 2 34l4 6q43 22 99 22q69 0 95 -41q6 -10 8.5 -22.5t3 -22t0.5 -46.5
v-39q0 -126 4 -165zM220 558l-30 -5q-31 -6 -46.5 -10t-36 -13t-29.5 -23.5t-9 -35.5q0 -28 18.5 -48t52.5 -20q26 0 40.5 6.5t39.5 25.5v123z" />
    <glyph glyph-name="guillemotleft" unicode="&#xab;" horiz-adv-x="354" 
d="M25 264v12q6 10 8 15q43 77 83 167l9 6h59l4 -8q-28 -51 -43 -77q-4 -7 -18.5 -35t-37.5 -71q16 -33 41.5 -78.5t44 -75.5t22.5 -35l-5 -9q-4 0 -28.5 -0.5t-29.5 -0.5l-10 5q-27 57 -48 94zM172 264v12l9 15q69 139 82 167l10 6h58l5 -7q-68 -124 -99 -184
q21 -45 58 -108.5t49 -80.5l-5 -9q-4 0 -28.5 -0.5t-29.5 -0.5l-9 5q-26 53 -49 94q-2 3 -14.5 26t-24.5 44z" />
    <glyph glyph-name="logicalnot" unicode="&#xac;" horiz-adv-x="667" 
d="M607 0v262h-607v59h667v-321h-60z" />
    <glyph glyph-name="registered" unicode="&#xae;" horiz-adv-x="833" 
d="M273 577h137q77 0 104 -10q33 -13 50.5 -40.5t17.5 -60.5q0 -44 -28 -72t-72 -35q35 -13 50 -34.5t22 -63.5q6 -42 8.5 -56t8.5 -34t16 -39h-75q-10 21 -18 61q-1 5 -5.5 35.5t-5.5 35.5q-9 46 -34 60t-79 15h-32v-207h-65v445zM339 527v-136h75q102 0 102 70
q0 31 -21 49q-13 12 -31 14.5t-64 2.5h-61zM773 351q-1 -148 -104 -251t-254 -103q-143 0 -249 101t-106 255q0 152 105 254t251 102q153 0 255.5 -105t101.5 -253zM741 352q1 135 -92 230t-231 95q-137 0 -231.5 -95t-94.5 -229q0 -136 95 -230t229 -94q137 0 230.5 93.5
t94.5 229.5z" />
    <glyph glyph-name="macron" unicode="&#xaf;" horiz-adv-x="292" 
d="M267 667l7 -6l-6 -52l-6 -5q-56 2 -150 2q-48 0 -87 -2l-7 9q5 25 6 47l7 7q51 -3 152 -3q49 0 84 3z" />
    <glyph glyph-name="macron" unicode="&#x2c9;" horiz-adv-x="292" 
d="M267 667l7 -6l-6 -52l-6 -5q-56 2 -150 2q-48 0 -87 -2l-7 9q5 25 6 47l7 7q51 -3 152 -3q49 0 84 3z" />
    <glyph glyph-name="degree" unicode="&#xb0;" horiz-adv-x="354" 
d="M30 601q0 61 43 104t104 43t104 -43t43 -104t-43 -104t-104 -43t-104 43t-43 104zM90 601q0 -36 25.5 -61.5t61.5 -25.5t61.5 25.5t25.5 61.5t-25.5 61.5t-61.5 25.5t-61.5 -25.5t-25.5 -61.5z" />
    <glyph glyph-name="plusminus" unicode="&#xb1;" horiz-adv-x="667" 
d="M364 379v-256h-59v256h-265v59h265v256h59v-256h262v-59h-262zM626 59v-59h-586v59h586z" />
    <glyph glyph-name="twosuperior" unicode="&#xb2;" horiz-adv-x="396" 
d="M341 242l-8 -7l-25 1h-30h-191h-33l-23 -1l-4 12q16 18 90 88q48 48 71 72q47 49 66.5 80t19.5 63q0 38 -24.5 65.5t-72.5 27.5q-66 0 -123 -54l-10 7q2 18 2 42l4 8q63 42 131 42q70 0 107.5 -39t37.5 -94q0 -37 -18.5 -72.5t-41.5 -61t-82 -84.5l-60 -58h58q90 1 156 3
l7 -7q-3 -21 -4 -33z" />
    <glyph glyph-name="threesuperior" unicode="&#xb3;" horiz-adv-x="396" 
d="M227 544l-29 -42q64 -4 96 -32q40 -37 40 -98q0 -64 -45 -105t-122 -41q-73 0 -129 37l-3 8q2 13 3 38l11 4q51 -43 116 -43q53 0 85.5 28t32.5 74q0 41 -30 65.5t-76 24.5q-26 0 -62 -10l-8 10l51 65q3 4 37 49q2 3 13 18t21 28l10 14h-71q-77 0 -113 -2l-6 9q2 18 2 29
l8 7q5 -1 54 -1h149q49 0 56 1l5 -11q-25 -31 -96 -124z" />
    <glyph glyph-name="acute" unicode="&#xb4;" horiz-adv-x="292" 
d="M222 724l4 -8q-52 -66 -99 -144l-7 -5q-24 2 -50 1l-5 8q49 110 62 143l6 5q20 -1 46 -1q28 0 43 1z" />
    <glyph glyph-name="mu" unicode="&#xb5;" 
d="M475 6l-6 -6q-24 -3 -56 -3l-6 5q2 27 2 60q-47 -74 -148 -74q-80 0 -125 58v-23q0 -148 6 -253l-7 -6q-29 1 -60 0l-6 6q3 217 2 303v167q0 51 -2 155q0 51 -3 110l6 7q35 0 60 3l6 -6q-4 -78 -4 -253q0 -69 4.5 -105t20.5 -60q35 -51 111 -51q64 0 100 38
q25 25 32.5 67t7.5 144q0 123 -6 216l6 7q31 0 58 3l6 -7q-1 -39 -1 -84q0 -280 2 -418z" />
    <glyph glyph-name="mu" unicode="&#x3bc;" 
d="M475 6l-6 -6q-24 -3 -56 -3l-6 5q2 27 2 60q-47 -74 -148 -74q-80 0 -125 58v-23q0 -148 6 -253l-7 -6q-29 1 -60 0l-6 6q3 217 2 303v167q0 51 -2 155q0 51 -3 110l6 7q35 0 60 3l6 -6q-4 -78 -4 -253q0 -69 4.5 -105t20.5 -60q35 -51 111 -51q64 0 100 38
q25 25 32.5 67t7.5 144q0 123 -6 216l6 7q31 0 58 3l6 -7q-1 -39 -1 -84q0 -280 2 -418z" />
    <glyph glyph-name="paragraph" unicode="&#xb6;" horiz-adv-x="667" 
d="M310 706h222v-44h-34v-829h-46v829h-157v-829h-46v497q-74 11 -112 53q-47 51 -47 129q0 71 39 120q25 32 61.5 49.5t60.5 20.5t59 4z" />
    <glyph glyph-name="periodcentered" unicode="&#xb7;" horiz-adv-x="208" 
d="M151 244l-8 -7q-49 -2 -78 -4l-8 8q2 26 2 39q0 14 -2 40l7 7q24 1 78 5l8 -7q-1 -39 1 -81z" />
    <glyph glyph-name="periodcentered" unicode="&#x2219;" horiz-adv-x="208" 
d="M151 244l-8 -7q-49 -2 -78 -4l-8 8q2 26 2 39q0 14 -2 40l7 7q24 1 78 5l8 -7q-1 -39 1 -81z" />
    <glyph glyph-name="cedilla" unicode="&#xb8;" horiz-adv-x="292" 
d="M89 -186l-6 9q35 65 63 124l8 6q30 0 51 -1l4 -6q-18 -54 -39 -125l-8 -7q-35 1 -73 0z" />
    <glyph glyph-name="onesuperior" unicode="&#xb9;" horiz-adv-x="396" 
d="M245 242l-7 -6q-10 0 -21.5 -1t-21.5 -1l-7 7q1 24 1 78q0 22 -1 156.5t-1 160.5q-56 -10 -59 -11l-9 7q1 14 1 31l6 8q37 4 107 15l9 -7q-3 -61 -3 -124q0 -192 6 -313z" />
    <glyph glyph-name="ordmasculine" unicode="&#xba;" horiz-adv-x="354" 
d="M329 540q0 -86 -41 -132q-41 -47 -114 -47q-65 0 -107 43t-42 133q0 86 42.5 130.5t114.5 44.5q73 0 109.5 -47t37.5 -125zM278 539q-3 131 -99 131q-22 0 -37 -5q-66 -22 -66 -127q0 -135 101 -135q103 0 101 136z" />
    <glyph glyph-name="guillemotright" unicode="&#xbb;" horiz-adv-x="354" 
d="M330 275l-1 -12q-6 -10 -8 -16q-36 -62 -83 -166l-9 -6q-40 0 -59 -1l-4 8q2 4 20.5 37.5t22.5 40.5t18.5 35t37.5 71q-16 32 -42 78t-43.5 74.5t-22.5 36.5l5 8q4 0 29 0.5t29 0.5l10 -5q18 -39 48 -93zM182 275v-12q-6 -10 -9 -16q-50 -94 -82 -166l-10 -6
q-40 0 -58 -1l-4 8q2 4 20.5 37.5t22.5 40.5t8.5 16t17 33t30.5 57q-42 86 -108 189l5 8q4 0 28.5 0.5t29.5 0.5l10 -5q14 -29 48 -93z" />
    <glyph glyph-name="onequarter" unicode="&#xbc;" horiz-adv-x="917" 
d="M881 136l-7 -8q-28 1 -57 1q1 -91 3 -119l-7 -9q-20 0 -39 -1l-7 7q1 26 1 121h-98q-8 0 -56 -0.5t-57 -0.5l-6 8q1 6 1 14t1 14l4 9q101 139 184 268l8 5q34 0 59 1l9 -6v-130v-140q32 0 58 1l9 -7q0 -4 -1 -12zM348 7l-9 -7q-24 0 -40 -2l-6 9q42 87 103 237l102 246
q22 58 42 103q22 54 29 77l11 7q22 0 37 1l7 -7q-40 -84 -91 -206l-99 -242q-81 -201 -86 -216zM608 170h160l2 236zM245 242l-7 -7q-22 0 -43 -1l-7 7q1 24 1 78q0 22 -1 156t-1 160q-38 -6 -59 -10l-9 6q1 15 1 32l6 8q56 6 107 14l9 -6q-3 -61 -3 -124q0 -192 6 -313z
" />
    <glyph glyph-name="onehalf" unicode="&#xbd;" horiz-adv-x="917" 
d="M245 242l-7 -7q-22 0 -43 -1l-7 7q1 24 1 77q0 22 -1 157t-1 160q-38 -6 -59 -10l-9 6q1 15 1 31l6 9q56 6 107 14l9 -6q-3 -63 -3 -124q0 -193 6 -313zM307 7l-9 -7q-8 0 -40 -2l-6 8q44 94 103 238l102 245q7 18 21 52t21 52q21 52 30 77l10 7q22 0 38 1l6 -7
q-51 -112 -91 -207l-99 -241q-81 -201 -86 -216zM861 6l-8 -7q-7 1 -53 1h-191q-47 0 -56 -1l-4 12q17 18 90 88q48 48 71 72q47 49 66.5 80t19.5 63q0 38 -24.5 65.5t-72.5 27.5q-66 0 -123 -54l-10 7q2 18 2 42l4 8q63 42 131 42q70 0 107.5 -39t37.5 -94
q0 -37 -18.5 -72.5t-41.5 -61t-82 -84.5l-60 -58h58q79 1 154 4l7 -7q-3 -21 -4 -34z" />
    <glyph glyph-name="threequarters" unicode="&#xbe;" horiz-adv-x="917" 
d="M227 544l-29 -42q64 -4 96 -32q40 -37 40 -98q0 -64 -45 -105t-122 -41q-73 0 -129 37l-3 8q2 13 3 38l11 4q51 -43 116 -43q53 0 85.5 28t32.5 74q0 41 -30 65.5t-76 24.5q-26 0 -62 -10l-8 10l51 65q3 4 37 49q2 3 13 18t21 28l10 14h-71q-77 0 -113 -2l-6 9q2 18 2 29
l8 7q5 -1 54 -1h149q49 0 56 1l5 -11q-25 -31 -96 -124zM354 7l-10 -7q-24 0 -40 -2l-5 9q36 74 102 237l102 246q7 17 21 51.5t21 51.5q16 36 30 77l10 7q23 0 38 1l6 -7q-41 -88 -90 -207l-99 -241q-75 -183 -86 -216zM881 136l-7 -8q-28 1 -57 1q1 -91 3 -119l-7 -9
q-20 0 -39 -1l-7 7q1 26 1 121h-98q-8 0 -56 -0.5t-57 -0.5l-6 8q1 6 1 14t1 14l3 9q96 131 185 268l8 5q34 0 59 1l9 -6v-130v-140q32 0 58 1l9 -7q0 -4 -1 -12zM608 170h160l2 236z" />
    <glyph glyph-name="questiondown" unicode="&#xbf;" horiz-adv-x="375" 
d="M168 564l7 9q29 0 46 2l8 -7q1 -68 -11 -106t-48 -94l-18 -27q-64 -95 -64 -162q0 -56 37.5 -92.5t94.5 -36.5q63 0 136 50l9 -5q-1 -15 -3 -49l-6 -11q-83 -39 -146 -39q-88 0 -139 51.5t-51 127.5q0 33 12.5 69.5t24.5 57.5t36 59l19 30q34 51 45.5 85.5t10.5 87.5z
M147 755l8 7q42 0 78 3l7 -7q0 -6 -0.5 -19t-0.5 -20t0.5 -20.5t0.5 -19.5l-7 -8q-44 -1 -78 -4l-7 7q1 39 -1 81z" />
    <glyph glyph-name="Agrave" unicode="&#xc0;" horiz-adv-x="562" 
d="M562 9l-5 -7l-68 -2l-6 7q-29 111 -59 204l-8 24h-257l-20 -1l-12 -36q-33 -106 -55 -192l-8 -6h-59l-5 9q40 111 78 227l154 465l6 6l85 2l7 -5l54 -165l74 -222q57 -176 104 -308zM275 671l-120 -382q38 -1 114 -1q21 0 63 0.5t65 0.5zM252 888l9 -8q1 -1 2 -3.5
t1 -4.5q1 -3 9 -22.5t21 -48t22 -45.5l-5 -7h-12q-3 0 -18.5 -0.5t-16.5 -0.5l-8 4q-44 58 -101 126l3 9q52 0 94 1z" />
    <glyph glyph-name="Aacute" unicode="&#xc1;" horiz-adv-x="562" 
d="M562 9l-5 -7l-68 -2l-6 7q-29 111 -59 204l-8 24h-257l-20 -1l-12 -36q-33 -106 -55 -192l-8 -6h-59l-5 9q40 111 78 227l154 465l6 6l85 2l7 -5l54 -165l74 -222q57 -176 104 -308zM275 671l-120 -382q38 -1 114 -1q21 0 63 0.5t65 0.5zM393 888l2 -10q-52 -61 -99 -126
l-7 -5q-22 2 -48 1l-4 7q33 70 49 123l9 8q52 0 98 2z" />
    <glyph glyph-name="Acircumflex" unicode="&#xc2;" horiz-adv-x="562" 
d="M562 9l-5 -7l-68 -2l-6 7q-29 111 -59 204l-8 24h-257l-20 -1l-12 -36q-33 -106 -55 -192l-8 -6h-59l-5 9q40 111 78 227l154 465l6 6l85 2l7 -5l54 -165l74 -222q57 -176 104 -308zM275 671l-120 -382q38 -1 114 -1q21 0 63 0.5t65 0.5zM341 889l8 -4q41 -70 79 -129
l-5 -6q-18 0 -25 -1q-20 0 -40 -3l-9 4q-32 53 -70 107q-40 -58 -67 -105l-8 -4q-12 1 -27 1q-19 0 -29 -1l-2 8q6 7 35.5 55.5t43.5 72.5l8 4q9 0 27 -0.5t27 -0.5q3 0 26.5 1t27.5 1z" />
    <glyph glyph-name="Atilde" unicode="&#xc3;" horiz-adv-x="562" 
d="M562 9l-5 -7l-68 -2l-6 7q-29 111 -59 204l-8 24h-257l-20 -1l-12 -36q-33 -106 -55 -192l-8 -6h-59l-5 9q40 111 78 227l154 465l6 6l85 2l7 -5l54 -165l74 -222q57 -176 104 -308zM275 671l-120 -382q38 -1 114 -1q21 0 63 0.5t65 0.5zM431 863l8 -4q-1 -8 -1 -25
q0 -15 -1 -23l-4 -7q-41 -43 -83 -43q-27 0 -65 20l-25 14q-32 15 -49 15q-34 0 -70 -44l-8 4q1 22 1 48l5 7q38 43 83 43q27 0 64 -21l26 -13q26 -15 47 -15q38 0 72 44z" />
    <glyph glyph-name="Adieresis" unicode="&#xc4;" horiz-adv-x="562" 
d="M562 9l-5 -7l-68 -2l-6 7q-29 111 -59 204l-8 24h-257l-20 -1l-12 -36q-33 -106 -55 -192l-8 -6h-59l-5 9q40 111 78 227l154 465l6 6l85 2l7 -5l54 -165l74 -222q57 -176 104 -308zM275 671l-120 -382q38 -1 114 -1q21 0 63 0.5t65 0.5zM424 780l-7 -8q-44 -2 -64 -3
l-8 8q2 35 1 66l8 8q42 1 64 3l7 -8q-1 -31 -1 -66zM209 780l-7 -8q-44 -2 -64 -3l-8 8q2 35 1 66l8 8q42 1 64 3l7 -8q-1 -31 -1 -66z" />
    <glyph glyph-name="Aring" unicode="&#xc5;" horiz-adv-x="562" 
d="M562 9l-5 -7l-68 -2l-6 7q-29 111 -59 204l-8 24h-257l-20 -1l-12 -36q-33 -106 -55 -192l-8 -6h-59l-5 9q40 111 78 227l154 465l6 6l85 2l7 -5l54 -165l74 -222q57 -176 104 -308zM275 671l-120 -382q38 -1 114 -1q21 0 63 0.5t65 0.5zM326 834q2 29 -11 48t-37 19
q-20 0 -33.5 -14.5t-13.5 -45.5q0 -60 49 -60q42 0 46 53zM377 838q-1 -41 -27 -67t-71 -26q-47 0 -73 26.5t-26 68.5q0 43 28.5 69.5t70.5 26.5q41 0 70 -27t28 -71z" />
    <glyph glyph-name="AE" unicode="&#xc6;" horiz-adv-x="813" 
d="M771 5l-6 -6l-80 1h-224l-81 -3l-6 5v224l-221 -2l-18 -47l-62 -172l-6 -5h-62l-5 7l12 28q20 48 65 157l49 121l59 145q48 123 90 242l7 6h298l182 2l6 -6l-4 -48l-7 -5q-125 4 -262 4h-57v-259l99 1l211 4l5 -6l-4 -48l-7 -5l-208 2h-95l5 -289h87l238 7l6 -7zM175 278
h200l-4 377h-49z" />
    <glyph glyph-name="Ccedilla" unicode="&#xc7;" horiz-adv-x="604" 
d="M311 -186l-6 9q32 59 63 125l8 5q30 0 51 -1l4 -6q-21 -62 -39 -125l-8 -7q-35 1 -73 0zM585 48l-5 -10q-3 -1 -8 -5t-8 -5q-75 -43 -179 -43q-87 0 -154.5 31t-107.5 83.5t-60 115.5t-20 133q0 99 37.5 182t118 137t191.5 54q108 0 186 -44l5 -8q-6 -23 -8 -53l-7 -5
q-76 55 -177 55q-74 0 -130 -29.5t-87 -77.5t-46 -100.5t-15 -107.5q0 -130 77 -219.5t204 -89.5q66 0 128 28q31 15 62 42l8 -5q-5 -31 -5 -59z" />
    <glyph glyph-name="Egrave" unicode="&#xc8;" horiz-adv-x="521" 
d="M479 3l-4 -3h-305l-81 -4l-7 7q2 128 2 155q0 272 -9 543l6 6l70 -1h179l141 2l6 -5l-3 -48l-8 -6l-263 3l-57 1v-258h99l210 2l6 -6l-2 -45l-9 -5q-80 2 -106 2q-68 0 -102 -1h-95l5 -288h87l240 4l4 -6zM231 888l9 -8q0 -1 1 -3.5t2 -4.5q1 -3 9 -22.5t21 -48t22 -45.5
l-5 -7h-12q-3 0 -18.5 -0.5t-16.5 -0.5l-8 4q-44 58 -101 126l3 9q52 0 94 1z" />
    <glyph glyph-name="Eacute" unicode="&#xc9;" horiz-adv-x="521" 
d="M479 3l-4 -3h-305l-81 -4l-7 7q2 128 2 155q0 272 -9 543l6 6l70 -1h179l141 2l6 -5l-3 -48l-8 -6l-263 3l-57 1v-258h99l210 2l6 -6l-2 -45l-9 -5q-80 2 -106 2q-68 0 -102 -1h-95l5 -288h87l240 4l4 -6zM372 888l2 -10q-52 -61 -99 -126l-7 -5q-22 2 -48 1l-4 7
q33 70 49 123l9 8q52 0 98 2z" />
    <glyph glyph-name="Ecircumflex" unicode="&#xca;" horiz-adv-x="521" 
d="M479 3l-4 -3h-305l-81 -4l-7 7q2 128 2 155q0 272 -9 543l6 6l70 -1h179l141 2l6 -5l-3 -48l-8 -6l-263 3l-57 1v-258h99l210 2l6 -6l-2 -45l-9 -5q-80 2 -106 2q-68 0 -102 -1h-95l5 -288h87l240 4l4 -6zM331 889l8 -4q41 -70 79 -129l-5 -6q-18 0 -25 -1q-20 0 -40 -3
l-9 4q-32 53 -70 107q-40 -58 -67 -105l-8 -4q-12 1 -27 1q-19 0 -29 -1l-2 8q6 7 35.5 55.5t43.5 72.5l8 4q9 0 27 -0.5t27 -0.5q3 0 26.5 1t27.5 1z" />
    <glyph glyph-name="Edieresis" unicode="&#xcb;" horiz-adv-x="521" 
d="M479 3l-4 -3h-305l-81 -4l-7 7q2 128 2 155q0 272 -9 543l6 6l70 -1h179l141 2l6 -5l-3 -48l-8 -6l-263 3l-57 1v-258h99l210 2l6 -6l-2 -45l-9 -5q-80 2 -106 2q-68 0 -102 -1h-95l5 -288h87l240 4l4 -6zM417 780l-7 -8q-44 -2 -64 -3l-8 8q2 35 1 66l8 8q42 1 64 3
l7 -8q-1 -31 -1 -66zM202 780l-7 -8q-44 -2 -64 -3l-8 8q2 35 1 66l8 8q42 1 64 3l7 -8q-1 -31 -1 -66z" />
    <glyph glyph-name="Igrave" unicode="&#xcc;" horiz-adv-x="229" 
d="M155 6l-6 -6l-62 -1l-6 6q2 114 2 161q0 318 -9 535l6 5l62 2l6 -6q0 -39 -0.5 -117t-0.5 -117q0 -158 8 -462zM86 888l9 -8q1 -1 2 -3.5t1 -4.5q1 -3 9 -22.5t21 -48t22 -45.5l-5 -7h-12q-3 0 -18.5 -0.5t-16.5 -0.5l-8 4q-44 58 -101 126l3 9q52 0 94 1z" />
    <glyph glyph-name="Iacute" unicode="&#xcd;" horiz-adv-x="229" 
d="M155 6l-6 -6l-62 -1l-6 6q2 114 2 161q0 318 -9 535l6 5l62 2l6 -6q0 -39 -0.5 -117t-0.5 -117q0 -158 8 -462zM227 888l2 -10q-52 -61 -99 -126l-7 -5q-22 2 -48 1l-4 7q33 70 49 123l9 8q52 0 98 2z" />
    <glyph glyph-name="Icircumflex" unicode="&#xce;" horiz-adv-x="229" 
d="M155 6l-6 -6l-62 -1l-6 6q2 114 2 161q0 318 -9 535l6 5l62 2l6 -6q0 -39 -0.5 -117t-0.5 -117q0 -158 8 -462zM175 889l8 -4q41 -70 79 -129l-5 -6q-18 0 -25 -1q-20 0 -40 -3l-9 4q-32 53 -70 107q-40 -58 -67 -105l-8 -4q-12 1 -27 1q-19 0 -29 -1l-2 8q6 7 35.5 55.5
t43.5 72.5l8 4q9 0 27 -0.5t27 -0.5q3 0 26.5 1t27.5 1z" />
    <glyph glyph-name="Idieresis" unicode="&#xcf;" horiz-adv-x="229" 
d="M155 6l-6 -6l-62 -1l-6 6q2 114 2 161q0 318 -9 535l6 5l62 2l6 -6q0 -39 -0.5 -117t-0.5 -117q0 -158 8 -462zM261 780l-7 -8q-44 -2 -64 -3l-8 8q2 35 1 66l8 8q42 1 64 3l7 -8q-1 -31 -1 -66zM46 780l-7 -8q-44 -2 -64 -3l-8 8q2 35 1 66l8 8q42 1 64 3l7 -8
q-1 -31 -1 -66z" />
    <glyph glyph-name="Eth" unicode="&#xd0;" horiz-adv-x="688" 
d="M224 -1l-42 1q-68 0 -93 -2l-6 6v336v11h-75l-6 6v40l6 6l75 -1q-3 199 -8 299l6 6h91h44q52 2 75 2q103 0 176 -25.5t119 -92.5q58 -82 58 -219q0 -132 -58 -223q-23 -36 -51.5 -63t-62.5 -42.5t-62 -25.5t-67.5 -13.5t-60.5 -4.5t-58 -1zM382 357l-6 -6q-143 2 -229 1
q0 -142 5 -300h66q55 0 85.5 1.5t72.5 11.5t74 30q127 80 127 282q0 138 -67 208q-42 44 -99 57.5t-132 13.5q-12 0 -32.5 -0.5t-24.5 -0.5l-75 -1v-253q96 0 229 2l6 -6q-1 -21 0 -40z" />
    <glyph glyph-name="Ntilde" unicode="&#xd1;" horiz-adv-x="688" 
d="M612 7l-6 -6l-89 -2l-8 5q-19 29 -95 161l-277 491l3 -297q1 -163 7 -352l-6 -7l-53 -1l-6 6q0 37 0.5 111.5t0.5 112.5q0 160 -8 472l6 6l88 2l9 -6q19 -30 46 -78q30 -52 119 -203l209 -371q-2 374 -11 651l5 5l53 2l6 -5q-2 -104 -2 -158q0 -327 9 -539zM494 863l8 -4
q-1 -8 -1 -25q0 -15 -1 -23l-4 -7q-41 -43 -83 -43q-27 0 -65 20l-25 14q-32 15 -49 15q-34 0 -70 -44l-8 4q1 22 1 48l5 7q38 43 83 43q27 0 64 -21l26 -13q26 -15 47 -15q38 0 72 44z" />
    <glyph glyph-name="Ograve" unicode="&#xd2;" horiz-adv-x="729" 
d="M685 353q0 -169 -84.5 -268.5t-232.5 -99.5q-139 0 -217 75q-107 101 -107 295q0 71 18 134.5t55.5 116.5t102 84t149.5 31q158 0 237 -100.5t79 -267.5zM618 353q0 145 -57 224q-67 91 -188 91q-104 0 -165 -53q-40 -36 -68.5 -104t-28.5 -157q0 -40 6 -79.5t23.5 -83.5
t44.5 -77t73 -54.5t106 -21.5q73 0 122 27q64 34 98.5 111t33.5 177zM336 888l9 -8q1 -1 2 -3.5t1 -4.5q1 -3 9 -22.5t21 -48t22 -45.5l-5 -7h-12q-3 0 -18.5 -0.5t-16.5 -0.5l-8 4q-44 58 -101 126l3 9q52 0 94 1z" />
    <glyph glyph-name="Oacute" unicode="&#xd3;" horiz-adv-x="729" 
d="M685 353q0 -169 -84.5 -268.5t-232.5 -99.5q-139 0 -217 75q-107 101 -107 295q0 71 18 134.5t55.5 116.5t102 84t149.5 31q158 0 237 -100.5t79 -267.5zM618 353q0 145 -57 224q-67 91 -188 91q-104 0 -165 -53q-40 -36 -68.5 -104t-28.5 -157q0 -40 6 -79.5t23.5 -83.5
t44.5 -77t73 -54.5t106 -21.5q73 0 122 27q64 34 98.5 111t33.5 177zM477 888l2 -10q-52 -61 -99 -126l-7 -5q-22 2 -48 1l-4 7q33 70 49 123l9 8q52 0 98 2z" />
    <glyph glyph-name="Ocircumflex" unicode="&#xd4;" horiz-adv-x="729" 
d="M685 353q0 -169 -84.5 -268.5t-232.5 -99.5q-139 0 -217 75q-107 101 -107 295q0 71 18 134.5t55.5 116.5t102 84t149.5 31q158 0 237 -100.5t79 -267.5zM618 353q0 145 -57 224q-67 91 -188 91q-104 0 -165 -53q-40 -36 -68.5 -104t-28.5 -157q0 -40 6 -79.5t23.5 -83.5
t44.5 -77t73 -54.5t106 -21.5q73 0 122 27q64 34 98.5 111t33.5 177zM425 889l8 -4q41 -70 79 -129l-5 -6q-18 0 -25 -1q-20 0 -40 -3l-9 4q-32 53 -70 107q-40 -58 -67 -105l-8 -4q-12 1 -27 1q-19 0 -29 -1l-2 8q6 7 35.5 55.5t43.5 72.5l8 4q9 0 27 -0.5t27 -0.5
q3 0 26.5 1t27.5 1z" />
    <glyph glyph-name="Otilde" unicode="&#xd5;" horiz-adv-x="729" 
d="M685 353q0 -169 -84.5 -268.5t-232.5 -99.5q-139 0 -217 75q-107 101 -107 295q0 71 18 134.5t55.5 116.5t102 84t149.5 31q158 0 237 -100.5t79 -267.5zM618 353q0 145 -57 224q-67 91 -188 91q-104 0 -165 -53q-40 -36 -68.5 -104t-28.5 -157q0 -40 6 -79.5t23.5 -83.5
t44.5 -77t73 -54.5t106 -21.5q73 0 122 27q64 34 98.5 111t33.5 177zM515 863l8 -4q-1 -8 -1 -25q0 -15 -1 -23l-4 -7q-41 -43 -83 -43q-27 0 -65 20l-25 14q-32 15 -49 15q-34 0 -70 -44l-8 4q1 22 1 48l5 7q38 43 83 43q27 0 64 -21l26 -13q26 -15 47 -15q38 0 72 44z" />
    <glyph glyph-name="Odieresis" unicode="&#xd6;" horiz-adv-x="729" 
d="M685 353q0 -169 -84.5 -268.5t-232.5 -99.5q-139 0 -217 75q-107 101 -107 295q0 71 18 134.5t55.5 116.5t102 84t149.5 31q158 0 237 -100.5t79 -267.5zM618 353q0 145 -57 224q-67 91 -188 91q-104 0 -165 -53q-40 -36 -68.5 -104t-28.5 -157q0 -40 6 -79.5t23.5 -83.5
t44.5 -77t73 -54.5t106 -21.5q73 0 122 27q64 34 98.5 111t33.5 177zM514 780l-7 -8q-44 -2 -64 -3l-8 8q2 35 1 66l8 8q42 1 64 3l7 -8q-1 -31 -1 -66zM299 780l-7 -8q-44 -2 -64 -3l-8 8q2 35 1 66l8 8q42 1 64 3l7 -8q-1 -31 -1 -66z" />
    <glyph glyph-name="multiply" unicode="&#xd7;" horiz-adv-x="667" 
d="M582 83l-41 -41l-208 207l-207 -207l-42 41l207 208l-207 206l42 42l207 -207l208 207l41 -42l-207 -206z" />
    <glyph glyph-name="Oslash" unicode="&#xd8;" horiz-adv-x="729" 
d="M731 668l1 -10q-7 -6 -47 -43.5t-47 -43.5q47 -90 47 -220q0 -187 -107 -290q-80 -76 -209 -76q-61 0 -110 15t-72 31t-51 42q-10 -12 -16 -19q-24 -24 -64 -68l-10 1l-28 32v11q42 37 87 82q-61 107 -61 232q0 183 88 280t239 97q77 0 133 -24q61 -27 106 -83
q45 42 81 83l12 -1zM153 159l412 409q-18 30 -42 50q-65 52 -152 52q-124 0 -190 -81q-72 -91 -72 -240q0 -105 44 -190zM589 523l-409 -404q25 -25 41 -38.5t55.5 -28.5t88.5 -15q38 0 70.5 8.5t53 19.5t38.5 28.5t26 28.5t18 27q47 79 47 207q0 45 -8 96q-6 32 -21 71z
" />
    <glyph glyph-name="Ugrave" unicode="&#xd9;" horiz-adv-x="667" 
d="M581 708l6 -6v-272l-1 -132q0 -109 -12 -153q-19 -70 -83.5 -115t-162.5 -45q-67 0 -118 21q-66 26 -99 85q-14 25 -21.5 61t-8.5 60.5t-1 69.5l2 299q0 62 -2 119l6 7l64 2l5 -6q-6 -280 -6 -384q0 -87 4.5 -128t21.5 -71q45 -79 158 -79q94 0 143 52q25 26 33 53
q12 32 14.5 66t2.5 127q0 206 -5 361l6 7zM304 888l9 -8q1 -1 2 -3.5t1 -4.5q1 -3 9 -22.5t21 -48t22 -45.5l-5 -7h-12q-3 0 -18.5 -0.5t-16.5 -0.5l-8 4q-44 58 -101 126l3 9q52 0 94 1z" />
    <glyph glyph-name="Uacute" unicode="&#xda;" horiz-adv-x="667" 
d="M581 708l6 -6v-272l-1 -132q0 -109 -12 -153q-19 -70 -83.5 -115t-162.5 -45q-67 0 -118 21q-66 26 -99 85q-14 25 -21.5 61t-8.5 60.5t-1 69.5l2 299q0 62 -2 119l6 7l64 2l5 -6q-6 -280 -6 -384q0 -87 4.5 -128t21.5 -71q45 -79 158 -79q94 0 143 52q25 26 33 53
q12 32 14.5 66t2.5 127q0 206 -5 361l6 7zM445 888l2 -10q-52 -61 -99 -126l-7 -5q-22 2 -48 1l-4 7q33 70 49 123l9 8q52 0 98 2z" />
    <glyph glyph-name="Ucircumflex" unicode="&#xdb;" horiz-adv-x="667" 
d="M581 708l6 -6v-272l-1 -132q0 -109 -12 -153q-19 -70 -83.5 -115t-162.5 -45q-67 0 -118 21q-66 26 -99 85q-14 25 -21.5 61t-8.5 60.5t-1 69.5l2 299q0 62 -2 119l6 7l64 2l5 -6q-6 -280 -6 -384q0 -87 4.5 -128t21.5 -71q45 -79 158 -79q94 0 143 52q25 26 33 53
q12 32 14.5 66t2.5 127q0 206 -5 361l6 7zM393 889l8 -4q41 -70 79 -129l-5 -6q-18 0 -25 -1q-20 0 -40 -3l-9 4q-32 53 -70 107q-40 -58 -67 -105l-8 -4q-12 1 -27 1q-19 0 -29 -1l-2 8q6 7 35.5 55.5t43.5 72.5l8 4q9 0 27 -0.5t27 -0.5q3 0 26.5 1t27.5 1z" />
    <glyph glyph-name="Udieresis" unicode="&#xdc;" horiz-adv-x="667" 
d="M581 708l6 -6v-272l-1 -132q0 -109 -12 -153q-19 -70 -83.5 -115t-162.5 -45q-67 0 -118 21q-66 26 -99 85q-14 25 -21.5 61t-8.5 60.5t-1 69.5l2 299q0 62 -2 119l6 7l64 2l5 -6q-6 -280 -6 -384q0 -87 4.5 -128t21.5 -71q45 -79 158 -79q94 0 143 52q25 26 33 53
q12 32 14.5 66t2.5 127q0 206 -5 361l6 7zM486 780l-7 -8q-44 -2 -64 -3l-8 8q2 35 1 66l8 8q42 1 64 3l7 -8q-1 -31 -1 -66zM271 780l-7 -8q-44 -2 -64 -3l-8 8q2 35 1 66l8 8q42 1 64 3l7 -8q-1 -31 -1 -66z" />
    <glyph glyph-name="Yacute" unicode="&#xdd;" horiz-adv-x="500" 
d="M284 6l-6 -6l-60 -2l-7 7q3 87 3 175q0 36 -2 106l-103 203l-108 208l5 8l65 5l9 -6q29 -67 63 -137l107 -222l63 121q60 117 115 236l8 5h58l6 -8l-114 -209l-107 -200zM362 888l2 -10q-52 -61 -99 -126l-7 -5q-22 2 -48 1l-4 7q33 70 49 123l9 8q52 0 98 2z" />
    <glyph glyph-name="Thorn" unicode="&#xde;" 
d="M142 707l6 -5q-1 -25 -1 -116q12 0 34 0.5t33 0.5l36 1q86 0 129 -13q51 -15 84 -49.5t44 -69t11 -70.5q0 -23 -5.5 -47t-18.5 -53t-41.5 -54.5t-68.5 -41.5q-61 -23 -212 -25h-22v-18q0 -31 5 -141l-6 -6q-32 0 -61 -1l-6 5q2 78 2 159q0 371 -9 537l6 6q16 -1 61 1z
M186 534l-39 -1q0 -192 2 -315h22q87 0 132 7q45 8 76.5 28t45.5 46t19.5 47t5.5 42q0 43 -16.5 73.5t-44 44.5t-43 18.5t-32.5 6.5q-29 4 -66 4q-10 0 -31.5 -0.5t-30.5 -0.5z" />
    <glyph glyph-name="germandbls" unicode="&#xdf;" 
d="M238 21l2 50l7 3q51 -29 96 -29q59 0 83 29t24 67q0 32 -16 56t-53 58l-70 64q-30 28 -38 37q-25 25 -25 40q0 18 40 58l18 19q25 29 37.5 46t25.5 46.5t13 57.5q0 47 -30 81.5t-90 34.5q-81 0 -109 -68q-18 -44 -18 -193q0 -283 6 -473l-6 -5l-58 -2l-6 6l3 330l1 122
q2 137 5 174t20 69q48 88 163 88q64 0 107 -26t59.5 -61.5t16.5 -76.5q0 -33 -14 -64.5t-27.5 -48.5t-39.5 -46l-19 -18q-28 -28 -28 -39q0 -8 13 -21q16 -16 33 -32l44 -40q56 -51 80.5 -86t24.5 -86q0 -59 -42 -104.5t-124 -45.5q-53 0 -105 20z" />
    <glyph glyph-name="agrave" unicode="&#xe0;" horiz-adv-x="479" 
d="M89 437l3 47l5 7q83 33 148 33q91 0 133 -47q21 -23 25 -48t4 -104v-62q-2 -133 6 -256l-6 -7l-53 -3l-7 6l-1 35q-68 -50 -142 -50q-76 0 -123 44.5t-47 118.5q0 75 52 121q46 41 172 61l88 13v13q-2 50 -9 66q-23 46 -98 46q-45 0 -73.5 -8.5t-68.5 -29.5zM346 296
l-54 -8q-70 -13 -99 -22t-49 -24q-47 -35 -47 -88q0 -44 30.5 -78.5t87.5 -34.5q30 0 56.5 9t40 18.5t34.5 26.5v201zM218 723l7 -6q10 -32 23 -67q11 -28 18.5 -47t9.5 -25l-5 -9q-22 0 -41 -2l-10 7q-39 60 -96 139l4 9q50 0 90 1z" />
    <glyph glyph-name="aacute" unicode="&#xe1;" horiz-adv-x="479" 
d="M89 437l3 47l5 7q83 33 148 33q91 0 133 -47q21 -23 25 -48t4 -104v-62q-2 -133 6 -256l-6 -7l-53 -3l-7 6l-1 35q-68 -50 -142 -50q-76 0 -123 44.5t-47 118.5q0 75 52 121q46 41 172 61l88 13v13q-2 50 -9 66q-23 46 -98 46q-45 0 -73.5 -8.5t-68.5 -29.5zM346 296
l-54 -8q-70 -13 -99 -22t-49 -24q-47 -35 -47 -88q0 -44 30.5 -78.5t87.5 -34.5q30 0 56.5 9t40 18.5t34.5 26.5v201zM356 724l4 -8q-52 -66 -99 -144l-7 -5q-24 2 -50 1l-5 8q49 110 62 143l6 5q20 -1 46 -1q28 0 43 1z" />
    <glyph glyph-name="acircumflex" unicode="&#xe2;" horiz-adv-x="479" 
d="M89 437l3 47l5 7q83 33 148 33q91 0 133 -47q21 -23 25 -48t4 -104v-62q-2 -133 6 -256l-6 -7l-53 -3l-7 6l-1 35q-68 -50 -142 -50q-76 0 -123 44.5t-47 118.5q0 75 52 121q46 41 172 61l88 13v13q-2 50 -9 66q-23 46 -98 46q-45 0 -73.5 -8.5t-68.5 -29.5zM346 296
l-54 -8q-70 -13 -99 -22t-49 -24q-47 -35 -47 -88q0 -44 30.5 -78.5t87.5 -34.5q30 0 56.5 9t40 18.5t34.5 26.5v201zM283 722l8 -5q0 -1 31.5 -66t35.5 -73l-5 -10h-54l-7 5q-38 81 -50 109q-37 -58 -64 -108l-8 -6q-4 0 -11.5 0.5t-11.5 0.5t-12 -0.5t-13 -0.5l-3 8
q2 3 18 29.5t19 32.5q13 21 42 78l7 6h78z" />
    <glyph glyph-name="atilde" unicode="&#xe3;" horiz-adv-x="479" 
d="M89 437l3 47l5 7q83 33 148 33q91 0 133 -47q21 -23 25 -48t4 -104v-62q-2 -133 6 -256l-6 -7l-53 -3l-7 6l-1 35q-68 -50 -142 -50q-76 0 -123 44.5t-47 118.5q0 75 52 121q46 41 172 61l88 13v13q-2 50 -9 66q-23 46 -98 46q-45 0 -73.5 -8.5t-68.5 -29.5zM346 296
l-54 -8q-70 -13 -99 -22t-49 -24q-47 -35 -47 -88q0 -44 30.5 -78.5t87.5 -34.5q30 0 56.5 9t40 18.5t34.5 26.5v201zM390 680l8 -4q-1 -8 -1 -25q-1 -7 -1 -23l-4 -7q-41 -43 -83 -43q-27 0 -65 20l-25 14q-28 15 -49 15q-16 0 -31.5 -9t-21 -14.5t-17.5 -19.5l-8 3
q2 44 2 49l4 7q42 42 83 42q25 0 65 -20l25 -14q26 -15 47 -15q38 0 72 44z" />
    <glyph glyph-name="adieresis" unicode="&#xe4;" horiz-adv-x="479" 
d="M89 437l3 47l5 7q83 33 148 33q91 0 133 -47q21 -23 25 -48t4 -104v-62q-2 -133 6 -256l-6 -7l-53 -3l-7 6l-1 35q-68 -50 -142 -50q-76 0 -123 44.5t-47 118.5q0 75 52 121q46 41 172 61l88 13v13q-2 50 -9 66q-23 46 -98 46q-45 0 -73.5 -8.5t-68.5 -29.5zM346 296
l-54 -8q-70 -13 -99 -22t-49 -24q-47 -35 -47 -88q0 -44 30.5 -78.5t87.5 -34.5q30 0 56.5 9t40 18.5t34.5 26.5v201zM377 603l-8 -8q-21 0 -64 -3l-7 8q1 36 0 66l8 8q24 0 64 3l7 -8q-1 -34 0 -66zM197 603l-7 -8q-20 0 -64 -3l-8 8q2 35 1 66l8 8q23 0 64 3l7 -8
q-2 -33 -1 -66z" />
    <glyph glyph-name="aring" unicode="&#xe5;" horiz-adv-x="479" 
d="M89 437l3 47l5 7q83 33 148 33q91 0 133 -47q21 -23 25 -48t4 -104v-62q-2 -133 6 -256l-6 -7l-53 -3l-7 6l-1 35q-68 -50 -142 -50q-76 0 -123 44.5t-47 118.5q0 75 52 121q46 41 172 61l88 13v13q-2 50 -9 66q-23 46 -98 46q-45 0 -73.5 -8.5t-68.5 -29.5zM346 296
l-54 -8q-70 -13 -99 -22t-49 -24q-47 -35 -47 -88q0 -44 30.5 -78.5t87.5 -34.5q30 0 56.5 9t40 18.5t34.5 26.5v201zM297 654q2 26 -10.5 46t-37.5 20q-20 0 -33.5 -15.5t-13.5 -44.5q0 -24 12 -41t37 -17q39 0 46 52zM348 659q-1 -41 -27 -67t-71 -26q-47 0 -73 26.5
t-26 68.5q0 43 28.5 69.5t70.5 26.5q41 0 70 -27t28 -71z" />
    <glyph glyph-name="ae" unicode="&#xe6;" horiz-adv-x="833" 
d="M799 274l-7 -7h-366q0 -39 1.5 -60.5t13.5 -54t35 -57.5q53 -56 133 -56q83 0 160 66l8 -4l-8 -61l-7 -9q-70 -43 -160 -43q-60 0 -109 21q-48 22 -79 69q-99 -90 -203 -90q-38 0 -69.5 11t-51.5 28t-33.5 39t-19 43t-5.5 40q0 59 43 104q35 38 89 49t159 14h45v17
q0 61 -6 79q-21 59 -107 59q-35 0 -70 -9.5t-48 -15.5t-42 -21l-7 5l4 49l8 10q85 35 160 35q126 0 155 -91q17 24 33 38q55 53 143 53q49 0 90 -18q39 -17 64.5 -45t36 -66t13.5 -61.5t4 -59.5zM428 316h307q-5 66 -31 102q-41 57 -118 57q-80 0 -127 -68q-23 -32 -31 -91z
M368 266h-53q-112 -2 -155 -21q-31 -14 -48 -39t-17 -53q0 -41 32.5 -74.5t90.5 -33.5q88 0 170 73q-12 27 -16 54t-4 94z" />
    <glyph glyph-name="ccedilla" unicode="&#xe7;" horiz-adv-x="438" 
d="M196 -187l-6 9q36 67 64 124l8 5q30 0 51 -1l3 -6q-28 -85 -38 -124l-8 -7q-35 1 -74 0zM420 100l10 -4q-2 -13 -3.5 -32.5t-2.5 -26.5l-8 -12q-57 -37 -138 -37q-101 0 -169.5 66.5t-68.5 195.5q0 124 66.5 199t182.5 75q70 0 128 -34l5 -8q-4 -23 -7 -57l-9 -4
q-51 48 -119 48q-79 0 -131.5 -56.5t-52.5 -160.5q0 -103 52 -156.5t126 -53.5q77 0 139 58z" />
    <glyph glyph-name="egrave" unicode="&#xe8;" horiz-adv-x="521" 
d="M487 269l-6 -6h-379q2 -67 22 -110t54.5 -69.5t61.5 -33t55 -6.5q93 0 168 66l8 -5l-4 -57l-5 -10q-28 -16 -45.5 -24t-52 -16.5t-74.5 -8.5q-119 0 -185 74.5t-66 191.5q0 120 63 194.5t172 74.5q108 0 166 -76q21 -27 32 -63t12.5 -58t2.5 -58zM106 314h315
q-4 63 -26 97q-42 64 -123 64q-76 0 -121 -52q-33 -39 -45 -109zM239 723l7 -6q10 -32 23 -67q11 -28 18.5 -47t9.5 -25l-5 -9q-22 0 -41 -2l-10 7q-39 60 -96 139l4 9q50 0 90 1z" />
    <glyph glyph-name="eacute" unicode="&#xe9;" horiz-adv-x="521" 
d="M487 269l-6 -6h-379q2 -67 22 -110t54.5 -69.5t61.5 -33t55 -6.5q93 0 168 66l8 -5l-4 -57l-5 -10q-28 -16 -45.5 -24t-52 -16.5t-74.5 -8.5q-119 0 -185 74.5t-66 191.5q0 120 63 194.5t172 74.5q108 0 166 -76q21 -27 32 -63t12.5 -58t2.5 -58zM106 314h315
q-4 63 -26 97q-42 64 -123 64q-76 0 -121 -52q-33 -39 -45 -109zM377 724l4 -8q-52 -66 -99 -144l-7 -5q-24 2 -50 1l-5 8q49 110 62 143l6 5q20 -1 46 -1q28 0 43 1z" />
    <glyph glyph-name="ecircumflex" unicode="&#xea;" horiz-adv-x="521" 
d="M487 269l-6 -6h-379q2 -67 22 -110t54.5 -69.5t61.5 -33t55 -6.5q93 0 168 66l8 -5l-4 -57l-5 -10q-28 -16 -45.5 -24t-52 -16.5t-74.5 -8.5q-119 0 -185 74.5t-66 191.5q0 120 63 194.5t172 74.5q108 0 166 -76q21 -27 32 -63t12.5 -58t2.5 -58zM106 314h315
q-4 63 -26 97q-42 64 -123 64q-76 0 -121 -52q-33 -39 -45 -109zM320 722l8 -5q0 -1 31.5 -66t35.5 -73l-5 -10h-54l-7 5q-38 81 -50 109q-37 -58 -64 -108l-8 -6q-4 0 -11.5 0.5t-11.5 0.5t-12 -0.5t-13 -0.5l-3 8q2 3 18 29.5t19 32.5q13 21 42 78l7 6h78z" />
    <glyph glyph-name="edieresis" unicode="&#xeb;" horiz-adv-x="521" 
d="M487 269l-6 -6h-379q2 -67 22 -110t54.5 -69.5t61.5 -33t55 -6.5q93 0 168 66l8 -5l-4 -57l-5 -10q-28 -16 -45.5 -24t-52 -16.5t-74.5 -8.5q-119 0 -185 74.5t-66 191.5q0 120 63 194.5t172 74.5q108 0 166 -76q21 -27 32 -63t12.5 -58t2.5 -58zM106 314h315
q-4 63 -26 97q-42 64 -123 64q-76 0 -121 -52q-33 -39 -45 -109zM406 603l-8 -8q-20 0 -64 -3l-7 8q1 36 0 66l8 8q23 0 64 3l7 -8q-1 -34 0 -66zM226 603l-7 -8q-21 0 -64 -3l-8 8q2 35 1 66l8 8q23 0 64 3l7 -8q-2 -33 -1 -66z" />
    <glyph glyph-name="igrave" unicode="&#xec;" horiz-adv-x="208" 
d="M143 6l-6 -6l-60 -1l-5 6q1 65 1 126q0 232 -9 370l6 6l60 10l6 -6q-3 -70 -3 -109q0 -183 10 -396zM82 723l7 -6q10 -32 23 -67q11 -28 18 -47t10 -25l-5 -9q-22 0 -41 -2l-10 7q-39 60 -96 139l4 9q50 0 90 1z" />
    <glyph glyph-name="iacute" unicode="&#xed;" horiz-adv-x="208" 
d="M143 6l-6 -6l-60 -1l-5 6q1 65 1 126q0 232 -9 370l6 6l60 10l6 -6q-3 -70 -3 -109q0 -183 10 -396zM220 724l4 -8q-52 -66 -99 -144l-7 -5q-24 2 -50 1l-5 8q49 110 62 143l6 5q20 -1 46 -1q28 0 43 1z" />
    <glyph glyph-name="icircumflex" unicode="&#xee;" horiz-adv-x="208" 
d="M143 6l-6 -6l-60 -1l-5 6q1 65 1 126q0 232 -9 370l6 6l60 10l6 -6q-3 -70 -3 -109q0 -183 10 -396zM147 722l8 -5q0 -1 31.5 -66t35.5 -73l-5 -10h-54l-7 5q-38 81 -50 109q-37 -58 -64 -108l-8 -6q-4 0 -11.5 0.5t-11.5 0.5t-12 -0.5t-13 -0.5l-3 8q2 3 18 29.5
t19 32.5q13 21 42 78l7 6h24h31h23z" />
    <glyph glyph-name="idieresis" unicode="&#xef;" horiz-adv-x="208" 
d="M143 6l-6 -6l-60 -1l-5 6q1 65 1 126q0 232 -9 370l6 6l60 10l6 -6q-3 -70 -3 -109q0 -183 10 -396zM233 603l-8 -8q-21 0 -64 -3l-7 8q1 36 0 66l8 8q24 0 64 3l7 -8q-1 -34 0 -66zM53 603l-7 -8q-20 0 -64 -3l-8 8q2 35 1 66l8 8q23 0 64 3l7 -8q-2 -33 -1 -66z" />
    <glyph glyph-name="eth" unicode="&#xf0;" 
d="M471 687l-3 -9q-77 -18 -82 -19q114 -158 114 -383q0 -139 -63 -211q-66 -75 -175 -75q-104 0 -163 73q-59 71 -59 200q0 116 55 184q66 82 173 82q85 0 138 -57q-26 93 -80 171q-137 -39 -175 -51l-11 -5l-11 3q-7 18 -19 38l5 7q23 5 180 47q-57 66 -110 97l5 8
q11 1 28 5q18 4 27 7l9 -3q48 -37 101 -97q21 7 86 29l11 -5q10 -20 19 -36zM434 277q0 51 -13.5 89t-31.5 58t-42 32.5t-41 15.5t-33 3q-43 0 -78 -19q-88 -48 -88 -200q0 -104 44 -159q42 -55 115 -55q83 0 128 67q40 59 40 168z" />
    <glyph glyph-name="ntilde" unicode="&#xf1;" 
d="M141 6l-6 -6l-59 -2l-5 6q2 110 2 123q0 53 -2 157q-1 129 -9 217l5 7l61 10l6 -6l-4 -52q32 20 49.5 29.5t56 22t75.5 12.5q78 0 120 -47q17 -19 25.5 -45.5t9.5 -48t2 -70.5l2 -102q1 -99 6 -205l-6 -6l-60 -2l-5 7q2 94 2 113q0 127 -4 233q-3 58 -24 84
q-29 34 -85 34q-77 0 -162 -67q1 -183 9 -396zM421 680l8 -4q-1 -8 -1 -25q-1 -7 -1 -23l-4 -7q-41 -43 -83 -43q-27 0 -65 20l-25 14q-28 15 -49 15q-16 0 -31.5 -9t-21 -14.5t-17.5 -19.5l-8 3q2 44 2 49l4 7q42 42 83 42q25 0 65 -20l25 -14q26 -15 47 -15q38 0 72 44z
" />
    <glyph glyph-name="ograve" unicode="&#xf2;" 
d="M502 261q1 -140 -65.5 -206.5t-165.5 -66.5q-117 0 -174 74.5t-57 192.5q0 100 35 160q63 109 202 109q60 0 104.5 -22.5t66.5 -52t35 -71.5t16 -66.5t3 -50.5zM435 261q-2 67 -18 110q-37 101 -145 101q-50 0 -85 -20.5t-51 -55t-22.5 -68t-6.5 -72.5q0 -16 1 -29t5 -42
t14.5 -51t27.5 -45t46.5 -35.5t68.5 -12.5q91 0 129 61.5t36 158.5zM249 723l7 -6q10 -32 23 -67q11 -28 18.5 -47t9.5 -25l-5 -9q-22 0 -41 -2l-10 7q-39 60 -96 139l4 9q50 0 90 1z" />
    <glyph glyph-name="oacute" unicode="&#xf3;" 
d="M502 261q1 -140 -65.5 -206.5t-165.5 -66.5q-117 0 -174 74.5t-57 192.5q0 100 35 160q63 109 202 109q60 0 104.5 -22.5t66.5 -52t35 -71.5t16 -66.5t3 -50.5zM435 261q-2 67 -18 110q-37 101 -145 101q-50 0 -85 -20.5t-51 -55t-22.5 -68t-6.5 -72.5q0 -16 1 -29t5 -42
t14.5 -51t27.5 -45t46.5 -35.5t68.5 -12.5q91 0 129 61.5t36 158.5zM387 724l4 -8q-52 -66 -99 -144l-7 -5q-24 2 -50 1l-5 8q49 110 62 143l6 5q20 -1 46 -1q28 0 43 1z" />
    <glyph glyph-name="ocircumflex" unicode="&#xf4;" 
d="M502 261q1 -140 -65.5 -206.5t-165.5 -66.5q-117 0 -174 74.5t-57 192.5q0 100 35 160q63 109 202 109q60 0 104.5 -22.5t66.5 -52t35 -71.5t16 -66.5t3 -50.5zM435 261q-2 67 -18 110q-37 101 -145 101q-50 0 -85 -20.5t-51 -55t-22.5 -68t-6.5 -72.5q0 -16 1 -29t5 -42
t14.5 -51t27.5 -45t46.5 -35.5t68.5 -12.5q91 0 129 61.5t36 158.5zM314 722l8 -5q0 -1 31.5 -66t35.5 -73l-5 -10h-54l-7 5q-38 81 -50 109q-37 -58 -64 -108l-8 -6q-4 0 -11.5 0.5t-11.5 0.5t-12 -0.5t-13 -0.5l-3 8q2 3 18 29.5t19 32.5q13 21 42 78l7 6h78z" />
    <glyph glyph-name="otilde" unicode="&#xf5;" 
d="M502 261q1 -140 -65.5 -206.5t-165.5 -66.5q-117 0 -174 74.5t-57 192.5q0 100 35 160q63 109 202 109q60 0 104.5 -22.5t66.5 -52t35 -71.5t16 -66.5t3 -50.5zM435 261q-2 67 -18 110q-37 101 -145 101q-50 0 -85 -20.5t-51 -55t-22.5 -68t-6.5 -72.5q0 -16 1 -29t5 -42
t14.5 -51t27.5 -45t46.5 -35.5t68.5 -12.5q91 0 129 61.5t36 158.5zM421 680l8 -4q-1 -8 -1 -25q-1 -7 -1 -23l-4 -7q-41 -43 -83 -43q-27 0 -65 20l-25 14q-28 15 -49 15q-16 0 -31.5 -9t-21 -14.5t-17.5 -19.5l-8 3q2 44 2 49l4 7q42 42 83 42q25 0 65 -20l25 -14
q26 -15 47 -15q38 0 72 44z" />
    <glyph glyph-name="odieresis" unicode="&#xf6;" 
d="M502 261q1 -140 -65.5 -206.5t-165.5 -66.5q-117 0 -174 74.5t-57 192.5q0 100 35 160q63 109 202 109q60 0 104.5 -22.5t66.5 -52t35 -71.5t16 -66.5t3 -50.5zM435 261q-2 67 -18 110q-37 101 -145 101q-50 0 -85 -20.5t-51 -55t-22.5 -68t-6.5 -72.5q0 -16 1 -29t5 -42
t14.5 -51t27.5 -45t46.5 -35.5t68.5 -12.5q91 0 129 61.5t36 158.5zM402 603l-8 -8q-20 0 -64 -3l-7 8q1 36 0 66l8 8q23 0 64 3l7 -8q-1 -34 0 -66zM222 603l-7 -8q-21 0 -64 -3l-8 8q2 35 1 66l8 8q24 0 64 3l7 -8q-2 -33 -1 -66z" />
    <glyph glyph-name="divide" unicode="&#xf7;" horiz-adv-x="667" 
d="M381 159q-1 -21 -14.5 -33t-32.5 -12q-17 0 -31 12.5t-14 33.5q0 19 13.5 32.5t34.5 13.5q19 0 32 -14t12 -33zM381 420q-1 -21 -14.5 -33t-32.5 -12q-17 0 -31 12.5t-14 33.5q0 19 13.5 32.5t34.5 13.5q19 0 32 -14t12 -33zM667 320v-59h-667v59h667z" />
    <glyph glyph-name="oslash" unicode="&#xf8;" 
d="M550 486v-12q-12 -10 -17 -15q-5 -4 -30.5 -25.5t-30.5 -25.5q30 -84 30 -151q0 -130 -62.5 -199.5t-176.5 -69.5q-57 0 -98 19t-76 64q-33 -30 -74 -68h-8l-24 28l1 9q50 40 83 69q-28 62 -28 143q0 112 43 176q63 96 196 96q106 0 170 -77q27 20 70 64h11zM420 363
l-285 -251q23 -34 53.5 -54t83.5 -20q63 0 101 30q64 51 64 187q0 49 -17 108zM117 154l285 251q-15 20 -26 31.5t-38.5 24t-62.5 12.5q-99 0 -141 -77q-30 -55 -30 -145q0 -36 13 -97z" />
    <glyph glyph-name="ugrave" unicode="&#xf9;" 
d="M476 6l-6 -6l-55 -4l-7 6l2 48q-71 -62 -170 -62q-83 0 -127 48q-19 21 -29 50t-11.5 47t-2.5 51v26v86v87q0 46 -4 123l6 7l60 2l6 -6q-4 -127 -4 -285q0 -64 6 -95t25 -52q32 -37 90 -37q13 0 39 4q55 11 114 61q0 221 -8 400l6 8q28 -1 58 3l6 -7q-2 -124 -2 -185
q0 -137 8 -318zM249 723l7 -6q10 -32 23 -67q11 -28 18.5 -47t9.5 -25l-5 -9q-22 0 -41 -2l-10 7q-39 60 -96 139l4 9q50 0 90 1z" />
    <glyph glyph-name="uacute" unicode="&#xfa;" 
d="M476 6l-6 -6l-55 -4l-7 6l2 48q-71 -62 -170 -62q-83 0 -127 48q-19 21 -29 50t-11.5 47t-2.5 51v26v86v87q0 46 -4 123l6 7l60 2l6 -6q-4 -127 -4 -285q0 -64 6 -95t25 -52q32 -37 90 -37q13 0 39 4q55 11 114 61q0 221 -8 400l6 8q28 -1 58 3l6 -7q-2 -124 -2 -185
q0 -137 8 -318zM387 724l4 -8q-52 -66 -99 -144l-7 -5q-24 2 -50 1l-5 8q49 110 62 143l6 5q20 -1 46 -1q28 0 43 1z" />
    <glyph glyph-name="ucircumflex" unicode="&#xfb;" 
d="M476 6l-6 -6l-55 -4l-7 6l2 48q-71 -62 -170 -62q-83 0 -127 48q-19 21 -29 50t-11.5 47t-2.5 51v26v86v87q0 46 -4 123l6 7l60 2l6 -6q-4 -127 -4 -285q0 -64 6 -95t25 -52q32 -37 90 -37q13 0 39 4q55 11 114 61q0 221 -8 400l6 8q28 -1 58 3l6 -7q-2 -124 -2 -185
q0 -137 8 -318zM314 722l8 -5q0 -1 31.5 -66t35.5 -73l-5 -10h-54l-7 5q-38 81 -50 109q-37 -58 -64 -108l-8 -6q-4 0 -11.5 0.5t-11.5 0.5t-12 -0.5t-13 -0.5l-3 8q2 3 18 29.5t19 32.5q13 21 42 78l7 6h78z" />
    <glyph glyph-name="udieresis" unicode="&#xfc;" 
d="M476 6l-6 -6l-55 -4l-7 6l2 48q-71 -62 -170 -62q-83 0 -127 48q-19 21 -29 50t-11.5 47t-2.5 51v26v86v87q0 46 -4 123l6 7l60 2l6 -6q-4 -127 -4 -285q0 -64 6 -95t25 -52q32 -37 90 -37q13 0 39 4q55 11 114 61q0 221 -8 400l6 8q28 -1 58 3l6 -7q-2 -124 -2 -185
q0 -137 8 -318zM400 603l-8 -8q-20 0 -64 -3l-7 8q1 36 0 66l8 8q23 0 64 3l7 -8q-1 -34 0 -66zM220 603l-7 -8q-21 0 -64 -3l-8 8q2 35 1 66l8 8q24 0 64 3l7 -8q-2 -33 -1 -66z" />
    <glyph glyph-name="yacute" unicode="&#xfd;" horiz-adv-x="438" 
d="M374 344l-72 -196q-90 -245 -117 -337q-4 -11 -13 -46l-7 -6l-62 1l-6 6q36 80 72 175l24 69q-59 158 -139 361q-26 67 -54 132l6 9l59 5l9 -7l81 -230l70 -192l75 213q32 94 65 204l10 8h56l7 -8q-30 -70 -64 -161zM335 724l4 -8q-52 -66 -99 -144l-7 -5q-24 2 -50 1
l-5 8q49 110 62 143l6 5q20 -1 46 -1q28 0 43 1z" />
    <glyph glyph-name="thorn" unicode="&#xfe;" 
d="M136 -229l-7 -6h-60l-6 5q0 40 1 110.5t1.5 124.5t0.5 90q0 47 -2.5 302.5t-3.5 268.5q-1 68 -5 111l6 7q27 3 63 11l6 -6q-5 -113 -2 -324q68 59 153 59q95 0 158.5 -66.5t63.5 -177.5q0 -127 -81 -205q-79 -77 -237 -77q-25 0 -55 3q1 -138 6 -230zM128 404v-132
q0 -15 0.5 -107.5t0.5 -110.5q30 -3 53 -3q90 0 144 28q108 57 108 196q0 82 -43 136t-120 54q-82 0 -143 -61z" />
    <glyph glyph-name="ydieresis" unicode="&#xff;" horiz-adv-x="438" 
d="M374 344l-72 -196q-90 -245 -117 -337q-4 -11 -13 -46l-7 -6l-62 1l-6 6q36 80 72 175l24 69q-59 158 -139 361q-26 67 -54 132l6 9l59 5l9 -7l81 -230l70 -192l75 213q32 94 65 204l10 8h56l7 -8q-30 -70 -64 -161zM348 603l-8 -8q-20 0 -64 -3l-7 8q1 36 0 66l8 8
q23 0 64 3l7 -8q-1 -34 0 -66zM168 603l-7 -8q-21 0 -64 -3l-8 8q2 35 1 66l8 8q24 0 64 3l7 -8q-2 -33 -1 -66z" />
    <glyph glyph-name="dotlessi" unicode="&#x131;" horiz-adv-x="208" 
d="M143 6l-6 -6l-60 -1l-5 6q1 65 1 126q0 232 -9 370l6 6l60 10l6 -6q-3 -70 -3 -109q0 -183 10 -396z" />
    <glyph glyph-name="Lslash" unicode="&#x141;" horiz-adv-x="458" 
d="M149 367l176 128l6 -2q-1 -9 -1 -26t1 -26l-3 -6q-96 -66 -178 -125v-47q0 -118 2 -210h58q176 2 235 6l6 -6q-3 -19 -4 -49l-5 -6q-5 0 -36 1t-37 1h-196q-65 0 -84 -2l-6 6q1 47 1 141q0 77 -1 117l-70 -52l-6 2q1 8 1 25t-1 26l3 5l74 53q0 26 -0.5 74.5t-1 88.5
t-1.5 76q-1 63 -5 140l6 6q6 0 64 2l6 -6q-5 -220 -3 -335z" />
    <glyph glyph-name="lslash" unicode="&#x142;" horiz-adv-x="208" 
d="M137 6l-6 -6q-28 1 -58 -1l-6 6q-1 121 1 323l-61 -53l-6 3v46l6 13l61 51q0 178 -4 276q-2 71 -7 114l7 6q33 4 62 10l6 -6q-2 -116 -2 -347l71 62l6 -2v-45l-6 -14l-71 -60v-46q0 -206 7 -330z" />
    <glyph glyph-name="OE" unicode="&#x152;" horiz-adv-x="958" 
d="M917 1l-7 -4l-124 3h-179q-80 -2 -105 -2q-31 -1 -84 -1q-86 0 -145 14t-110 55q-120 97 -120 289q0 178 103 269q57 52 126.5 68t175.5 16q37 0 109 -2h211l140 2l6 -5l-3 -48l-8 -6l-262 3l-58 1v-258h100l210 2l6 -6l-3 -45l-8 -5q-80 2 -106 2q-68 0 -102 -1h-96
l5 -288h88q126 1 239 6l4 -6zM490 51l29 1q0 276 -5 602l-61 1q-62 -1 -90.5 -3t-64.5 -11t-66 -27q-65 -39 -93.5 -107.5t-28.5 -143.5q0 -76 24 -140t56 -97q26 -27 56.5 -43.5t75.5 -23t74.5 -7.5t93.5 -1z" />
    <glyph glyph-name="oe" unicode="&#x153;" horiz-adv-x="917" 
d="M882 271l-8 -8h-372q2 -65 20 -108q23 -54 68 -84.5t105 -30.5q44 0 80.5 13t51 24t34.5 29l8 -4l-7 -57l-5 -10q-33 -23 -62 -32q-45 -15 -104 -15q-41 0 -76.5 11t-56.5 23.5t-40.5 34t-25.5 31.5t-15 26q-27 -53 -57 -78q-59 -48 -147 -48q-99 0 -159 57
q-75 71 -75 204q0 67 17.5 118.5t42.5 80.5t59 47t62 23.5t56 5.5q72 0 127 -36q47 -32 73 -91q12 23 19.5 36.5t25 31.5t39.5 31q50 28 112 28q65 0 118 -33q46 -29 73 -93q21 -52 19 -127zM503 314h316q-1 24 -2.5 35t-7.5 29.5t-18 36.5q-40 60 -120 60q-85 0 -134 -69
q-22 -32 -34 -92zM423 123q25 48 25 132q0 40 -8.5 76.5t-27 69t-52.5 52t-81 19.5q-73 0 -116 -42q-59 -58 -59 -176q0 -94 39 -149q46 -65 135 -65q48 0 86.5 21t58.5 62z" />
    <glyph glyph-name="Scaron" unicode="&#x160;" horiz-adv-x="521" 
d="M59 107l10 2q27 -25 40 -33q56 -37 130 -37q76 0 122.5 40.5t46.5 103.5q0 54 -32 84.5t-98 59.5l-80 33q-33 16 -51 26.5t-44.5 32t-39 51t-12.5 67.5q0 43 19.5 81.5t54.5 63.5q57 39 152 39q92 0 166 -40l6 -8l-6 -49l-10 -5q-25 15 -40 23t-48 17t-70 9
q-49 0 -83.5 -14t-49.5 -36t-21 -40.5t-6 -36.5q0 -27 10 -48t31.5 -36.5t40 -25t51.5 -22.5l71 -30q32 -15 51 -26t47 -34.5t42 -56.5t14 -76q0 -82 -60.5 -141.5t-172.5 -59.5q-109 0 -181 51l-4 10zM206 746l-8 4q-41 70 -79 129l5 6h13q4 0 16.5 1t24.5 2l11 1l9 -4
q35 -58 70 -107q28 39 67 105l8 4q12 -1 27 -1q19 0 29 1l2 -8q-42 -61 -79 -128l-8 -4q-9 0 -27 0.5t-27 0.5q-4 0 -27 -1t-27 -1z" />
    <glyph glyph-name="scaron" unicode="&#x161;" horiz-adv-x="417" 
d="M40 93l8 3q26 -25 48 -35q47 -22 98 -22q49 0 87.5 24t38.5 74q0 23 -7 39t-24.5 26.5t-31.5 15.5t-43 13l-48 14q-27 8 -43 15t-39.5 22.5t-35 40.5t-11.5 60q0 56 47 98.5t140 42.5q54 0 131 -30l4 -7l-7 -58l-5 -2q-57 43 -131 43q-57 0 -86.5 -25.5t-29.5 -63.5
q0 -27 19 -48q18 -18 83 -37l52 -14q18 -5 28 -9t32 -15.5t35 -25t23.5 -36.5t10.5 -51q0 -62 -46.5 -109.5t-148.5 -47.5q-79 0 -149 39l-5 8q5 23 6 58zM166 568l-8 5q-1 2 -32 66.5t-35 72.5l5 10h54l7 -5q14 -31 50 -109q34 54 64 108l8 6q4 0 11.5 -0.5t11.5 -0.5
t12 0.5t13 0.5l3 -8q-3 -5 -19.5 -32t-18.5 -30q-10 -17 -41 -78l-7 -6h-24h-31h-23z" />
    <glyph glyph-name="Ydieresis" unicode="&#x178;" horiz-adv-x="500" 
d="M284 6l-6 -6l-60 -2l-7 7q3 87 3 175q0 36 -2 106l-103 203l-108 208l5 8l65 5l9 -6q29 -67 63 -137l107 -222l63 121q60 117 115 236l8 5h58l6 -8l-114 -209l-107 -200zM396 780l-7 -8q-44 -2 -64 -3l-8 8q2 35 1 66l8 8q42 1 64 3l7 -8q-1 -31 -1 -66zM181 780l-7 -8
q-44 -2 -64 -3l-8 8q2 35 1 66l8 8q42 1 64 3l7 -8q-1 -31 -1 -66z" />
    <glyph glyph-name="Zcaron" unicode="&#x17d;" horiz-adv-x="500" 
d="M486 3l-6 -5l-89 2h-226l-152 -2l-4 8q79 133 164 284l112 197q74 129 95 169l-99 -1l-238 -6l-6 6l4 47l6 6l95 -2h209l126 1l4 -6q-52 -85 -108 -185l-264 -464h133q127 1 242 5l6 -7zM196 746l-8 4q-41 70 -79 129l5 6h13q4 0 16.5 1t24.5 2l11 1l9 -4q35 -58 70 -107
q28 39 67 105l8 4q12 -1 27 -1q19 0 29 1l2 -8q-42 -61 -79 -128l-8 -4q-9 0 -27 0.5t-27 0.5q-4 0 -27 -1t-27 -1z" />
    <glyph glyph-name="zcaron" unicode="&#x17e;" horiz-adv-x="417" 
d="M396 5l-9 -7l-82 2h-147l-137 -1l-3 7l133 214l149 243l-73 -1l-179 -2l-6 6l4 40l7 7l83 -1h164l91 2l6 -7l-124 -199l-157 -258h65l210 4l7 -6zM166 568l-8 5q-1 2 -32 66.5t-35 72.5l5 10h54l7 -5q14 -31 50 -109q34 54 64 108l8 6q4 0 11.5 -0.5t11.5 -0.5t12 0.5
t13 0.5l3 -8q-3 -5 -19.5 -32t-18.5 -30q-10 -17 -41 -78l-7 -6h-24h-31h-23z" />
    <glyph glyph-name="florin" unicode="&#x192;" horiz-adv-x="354" 
d="M99 139l23 233q-8 0 -76 -2l-6 6q5 30 6 42l7 7q35 -2 74 -2l6 74q3 42 6 63t12 50.5t22.5 43.5t39 24.5t61.5 10.5q22 0 54 -6l7 -8q-4 -26 -5 -43l-7 -6q-21 7 -42 7q-48 0 -62 -30.5t-24 -116.5l-6 -63q13 1 48 1.5t51 0.5l6 -7q-2 -7 -7 -39l-7 -8q-39 1 -95 1
l-29 -298q-1 -12 -5.5 -62t-7.5 -71q-9 -64 -37 -98t-98 -34q-21 0 -55 6l-6 8q3 24 5 43l6 6q21 -7 42 -7q31 0 48.5 15.5t23 33.5t9.5 52q1 7 8.5 83t9.5 90z" />
    <glyph glyph-name="circumflex" unicode="&#x2c6;" horiz-adv-x="292" 
d="M190 722l8 -5q0 -1 31.5 -66t35.5 -73l-5 -10h-54l-7 5q-38 81 -50 109q-37 -58 -64 -108l-8 -6q-4 0 -11.5 0.5t-11.5 0.5t-12 -0.5t-13 -0.5l-3 8q2 3 18 29.5t19 32.5q13 21 42 78l7 6h78z" />
    <glyph glyph-name="caron" unicode="&#x2c7;" horiz-adv-x="292" 
d="M101 568l-8 5q-1 2 -32 66.5t-35 72.5l5 10h54l7 -5q14 -31 50 -109q34 54 64 108l8 6q4 0 11.5 -0.5t11.5 -0.5t12 0.5t13 0.5l3 -8q-3 -5 -19.5 -32t-18.5 -30q-10 -17 -41 -78l-7 -6h-78z" />
    <glyph glyph-name="breve" unicode="&#x2d8;" horiz-adv-x="292" 
d="M251 696l6 -7q2 -39 -11 -65q-3 -8 -10.5 -17.5t-32 -22.5t-57.5 -13q-72 0 -100 53q-11 21 -11 65l7 7h42l5 -6q0 -59 57 -59q56 0 58 59l4 6h12h14.5h16.5z" />
    <glyph glyph-name="dotaccent" unicode="&#x2d9;" horiz-adv-x="292" 
d="M185 603l-7 -8q-44 -2 -64 -3l-8 8q2 35 1 66l8 8q42 1 64 3l7 -8q-1 -31 -1 -66z" />
    <glyph glyph-name="ring" unicode="&#x2da;" horiz-adv-x="292" 
d="M193 654q2 26 -10.5 46t-37.5 20q-20 0 -33.5 -15.5t-13.5 -44.5q0 -24 12 -41t37 -17q39 0 46 52zM244 659q-1 -41 -27 -67t-71 -26q-47 0 -73 26.5t-26 68.5q0 43 28.5 69.5t70.5 26.5q41 0 70 -27t28 -71z" />
    <glyph glyph-name="ogonek" unicode="&#x2db;" horiz-adv-x="292" 
d="M142 9l25 -11q-43 -43 -43 -69q0 -16 12 -26.5t31 -10.5q29 0 58 22l8 -2q-5 -28 -5 -49l-6 -10q-37 -22 -78 -22q-46 0 -66 23t-20 49q0 57 84 106z" />
    <glyph glyph-name="tilde" unicode="&#x2dc;" horiz-adv-x="292" 
d="M291 680l8 -4q-1 -8 -1 -25q-1 -7 -1 -23l-4 -7q-41 -43 -83 -43q-27 0 -65 20l-25 14q-28 15 -49 15q-16 0 -31.5 -9t-21 -14.5t-17.5 -19.5l-8 3q2 44 2 49l4 7q42 42 83 42q25 0 65 -20l25 -14q26 -15 47 -15q38 0 72 44z" />
    <glyph glyph-name="hungarumlaut" unicode="&#x2dd;" horiz-adv-x="292" 
d="M153 724l4 -8q-54 -70 -99 -144l-7 -5q-24 2 -47 1l-5 8q45 101 61 143l7 5q37 -1 86 0zM289 724l4 -8q-54 -70 -99 -144l-7 -5q-24 2 -48 1l-5 8q49 109 61 143l7 5q38 -1 87 0z" />
    <glyph glyph-name="endash" unicode="&#x2013;" horiz-adv-x="583" 
d="M559 313l7 -6q-1 -11 -2 -19.5l-2 -17t-2 -14.5l-6 -6q-60 3 -124 3h-280q-43 0 -125 -2l-7 8q5 25 7 47l7 7q46 -2 237 -2q12 0 82.5 -1t83.5 -1q24 0 124 4z" />
    <glyph glyph-name="emdash" unicode="&#x2014;" horiz-adv-x="708" 
d="M684 313l7 -6q-3 -25 -6 -52l-6 -5q-80 3 -145 3q-30 0 -89 -0.5t-88 -0.5q-13 0 -93.5 0.5t-95.5 0.5q-82 0 -143 -3l-7 9q5 25 7 47l7 7q55 -3 143 -3q102 0 153 1q111 0 210 -3q81 0 146 5z" />
    <glyph glyph-name="quoteleft" unicode="&#x2018;" horiz-adv-x="208" 
d="M30 514l-5 9q36 88 80 239l7 8q20 0 40 1l4 -6q-31 -129 -47 -240l-7 -7q-30 -1 -72 -4z" />
    <glyph glyph-name="quoteright" unicode="&#x2019;" horiz-adv-x="208" 
d="M156 771l5 -9q-36 -88 -79 -239l-7 -7q-5 0 -10.5 -0.5t-14 -1t-15.5 -0.5l-4 6q27 114 47 241l7 7q32 0 71 3z" />
    <glyph glyph-name="quotesinglbase" unicode="&#x201a;" horiz-adv-x="208" 
d="M150 94l6 -9q-41 -95 -80 -239l-7 -7q-20 0 -40 -2l-4 6q30 131 47 241l7 7q32 0 71 3z" />
    <glyph glyph-name="quotedblleft" unicode="&#x201c;" horiz-adv-x="354" 
d="M64 514l-5 9q30 72 79 239l7 8q20 0 41 1l3 -6q-27 -113 -47 -240l-6 -7q-32 -1 -72 -4zM210 514l-5 9q34 88 79 239l7 8q20 0 40 1l4 -6q-27 -113 -47 -240l-7 -7q-31 -1 -71 -4z" />
    <glyph glyph-name="quotedblright" unicode="&#x201d;" horiz-adv-x="354" 
d="M302 771l5 -9q-36 -88 -79 -239l-7 -7q-1 0 -41 -2l-3 6q27 114 47 241l6 7q32 0 72 3zM156 771l5 -9q-36 -88 -79 -239l-7 -7q-5 0 -10.5 -0.5t-14 -1t-15.5 -0.5l-4 6q27 114 47 241l7 7q32 0 71 3z" />
    <glyph glyph-name="quotedblbase" unicode="&#x201e;" horiz-adv-x="354" 
d="M296 94l5 -9q-40 -97 -79 -239l-7 -7q-20 0 -40 -2l-4 6q30 131 47 241l7 7q32 0 71 3zM150 94l6 -9q-41 -95 -80 -239l-7 -7q-20 0 -40 -2l-4 6q30 131 47 241l7 7q32 0 71 3z" />
    <glyph glyph-name="dagger" unicode="&#x2020;" horiz-adv-x="438" 
d="M298 468h-46v-257q1 -98 1 -247q0 -83 3 -126l-9 -8q-29 0 -57 -1l-8 8q5 145 5 347v284l-54 -2q-60 -1 -108 -3l-7 8q0 10 3 43l8 7q47 -2 98 -1h61v47q0 95 -3 191l7 7q29 0 54 2l8 -8q-1 -31 -2 -102.5t-1 -79.5v-56h57q26 1 55 1q8 1 24.5 1.5t25.5 0.5l7 -7
q-3 -21 -5 -43l-7 -8q-44 2 -110 2z" />
    <glyph glyph-name="daggerdbl" unicode="&#x2021;" horiz-adv-x="438" 
d="M298 468h-46l-1 -328l54 2q66 1 107 3l8 -8l-2 -26t-1 -17l-9 -8q-18 1 -48.5 1.5t-48.5 0.5h-60v-59q-1 -110 2 -191l-6 -7q-30 0 -55 -2l-8 8q1 6 1 18q0 23 0.5 82t1.5 82v68h-57q-59 -1 -105 -3l-7 7q4 33 4 43l8 8q49 -2 110 -2h46l1 328l-54 -2q-69 -1 -108 -3
l-7 8q1 15 3 43l8 8q21 -1 49.5 -1.5t48.5 -0.5h61v47q0 95 -3 191l6 7q30 0 55 2l8 -8q-1 -6 -1 -18q0 -23 -0.5 -82t-1.5 -82v-56h57q67 1 105 3l7 -7q-4 -26 -5 -43l-7 -8q-49 2 -110 2z" />
    <glyph glyph-name="bullet" unicode="&#x2022;" horiz-adv-x="333" 
d="M286 353q1 -44 -30 -81.5t-87 -37.5q-53 0 -87.5 35t-34.5 84q0 47 34 83t87 36q51 0 84 -34.5t34 -84.5z" />
    <glyph glyph-name="ellipsis" unicode="&#x2026;" horiz-adv-x="1000" 
d="M881 41q-1 -24 -16 -35.5t-31 -11.5t-31 12.5t-15 32.5q0 19 12.5 33.5t34.5 14.5q19 0 32.5 -13t13.5 -33zM547 41q0 -18 -12.5 -32.5t-34.5 -14.5q-18 0 -32 13.5t-14 31.5t12 33t35 15q21 0 33 -13.5t13 -32.5zM213 41q0 -20 -13 -33.5t-33 -13.5t-33.5 14t-13.5 33
q0 20 14.5 33t33.5 13t32 -13t13 -33z" />
    <glyph glyph-name="perthousand" unicode="&#x2030;" horiz-adv-x="1313" 
d="M362 453q0 -24 -2 -44.5t-11.5 -57t-26 -61.5t-49 -44.5t-77.5 -19.5q-60 0 -98 35t-51.5 83.5t-13.5 111.5q0 30 3 57.5t14 60.5t28 57t48.5 40.5t73.5 16.5q43 0 74.5 -17.5t48 -42t26 -59.5t11.5 -61t2 -55zM309 453q2 194 -110 194t-112 -194q0 -186 112 -186
q61 0 88 61q20 46 22 125zM883 217q0 -24 -2 -45t-12 -57t-26 -61t-49 -44t-77 -19q-45 0 -78 19t-51 52t-26 72t-8 86q0 30 3 57.5t14 60.5t28 57t48.5 40.5t73.5 16.5q43 0 74.5 -17.5t48 -42t26 -59.5t11.5 -61t2 -55zM830 217q2 194 -110 194t-112 -193q0 -186 112 -186
q61 0 88 61q20 46 22 124zM1279 217q0 -24 -2 -45t-12 -57t-26 -61t-49 -44t-77 -19q-45 0 -78 19t-51 52t-26 72t-8 86q0 30 3 57.5t14 60.5t28 57t48.5 40.5t73.5 16.5q43 0 74.5 -17.5t48 -42t26 -59.5t11.5 -61t2 -55zM1226 217q2 194 -110 194t-112 -193
q0 -186 112 -186q61 0 88 61q20 46 22 124zM348 8l-10 -7q-8 0 -40 -2l-5 8q36 76 102 238l102 245q7 18 21 52t21 52q16 36 30 77l10 7q23 0 38 1l6 -7q-40 -88 -90 -207l-99 -241q-72 -177 -86 -216z" />
    <glyph glyph-name="guilsinglleft" unicode="&#x2039;" horiz-adv-x="208" 
d="M25 264l1 12l3.5 7t4.5 8q36 64 83 167l9 6h59l4 -8q-28 -51 -43 -77q-4 -7 -18.5 -35t-37.5 -71q16 -33 41.5 -78.5t44 -75.5t22.5 -35l-5 -9q-4 0 -29 -0.5t-30 -0.5l-9 5q-27 56 -49 94z" />
    <glyph glyph-name="guilsinglright" unicode="&#x203a;" horiz-adv-x="208" 
d="M183 275l-1 -12l-2 -4t-1.5 -3.5t-2 -4t-2.5 -4.5q-50 -94 -82 -166l-10 -6q-40 0 -58 -1l-5 8q2 4 20.5 37.5t22.5 40.5q16 28 56 106q-15 32 -41 78t-43.5 74.5t-22.5 36.5l5 8q4 0 28.5 0.5t29.5 0.5l9 -5q32 -64 49 -93z" />
    <glyph glyph-name="fraction" unicode="&#x2044;" horiz-adv-x="125" 
d="M-56 7l-10 -7q-6 0 -34 -2l-5 8q36 77 102 238l102 245q7 18 21 52.5t21 51.5q27 66 41 106l10 7q18 0 32 1l6 -7q-26 -57 -101 -236l-99 -241q-7 -17 -20.5 -50.5t-20.5 -50.5q-31 -74 -45 -115z" />
    <glyph glyph-name="fraction" unicode="&#x2215;" horiz-adv-x="125" 
d="M-56 7l-10 -7q-6 0 -34 -2l-5 8q36 77 102 238l102 245q7 18 21 52.5t21 51.5q27 66 41 106l10 7q18 0 32 1l6 -7q-26 -57 -101 -236l-99 -241q-7 -17 -20.5 -50.5t-20.5 -50.5q-31 -74 -45 -115z" />
    <glyph glyph-name="Euro" unicode="&#x20ac;" horiz-adv-x="583" 
d="M396 293q28 0 43 2l7 -7q-6 -18 -12 -42l-6 -5q-4 0 -30.5 0.5t-67.5 0.5h-79h-67q30 -202 203 -202q76 0 160 71l8 -5q-5 -31 -5 -57l-5 -10q-43 -28 -80.5 -40.5t-88.5 -12.5q-112 0 -177.5 69t-83.5 187h-30q-34 0 -52 -1l-7 8q8 25 11 38l7 7h65q-1 13 -1 41
q0 32 3 62h-24q-33 0 -51 -1l-7 8q7 20 10 38l7 7h73q20 107 88 175t175 68q92 0 164 -44l5 -8q-12 -24 -17 -52l-7 -5q-1 0 -11.5 8t-15 11t-16 10t-20.5 10.5t-22.5 7.5t-28.5 6t-31 2q-81 0 -129.5 -52.5t-64.5 -137.5h72h180q28 0 43 2l8 -7q-2 -6 -6 -20.5t-6 -21.5
l-6 -5h-41t-87.5 0.5t-88.5 0.5h-76q-3 -30 -3 -61q0 -29 1 -43h77h141z" />
    <glyph glyph-name="trademark" unicode="&#x2122;" horiz-adv-x="687" 
d="M559 601l-72 -227h-42l-72 228l-17 56l3 -66v-218h-45v332h67l87 -273l85 273h67v-332h-46v218l2 67zM180 664v-290h-47v290h-109v42h262v-42h-106z" />
    <glyph glyph-name="minus" unicode="&#x2212;" horiz-adv-x="667" 
d="M667 321v-59h-667v59h667z" />
    <glyph glyph-name="fi" unicode="&#xfb01;" horiz-adv-x="479" 
d="M414 6l-6 -6q-33 1 -60 -1l-5 6v25q1 32 1 96q0 259 -9 376l6 6q39 4 60 9l6 -6q-3 -81 -3 -114q0 -177 6 -279q0 -40 4 -112zM410 689l-7 -8q-19 -1 -64 -6l-8 8q2 32 1 62l8 8q32 2 64 6l7 -8q-2 -29 -1 -62zM268 466l-7 -6q-37 1 -106 1q0 -274 7 -455l-5 -6
q-17 1 -58 -1l-6 6q0 13 0.5 43t0.5 51q0 60 -0.5 181.5t-0.5 181.5q-38 0 -86 -2l-7 6q2 20 2 43l6 6q51 -3 85 -3l-2 67q-2 78 5 103q24 92 144 92q19 0 39 -5l5 -8q-3 -16 -3 -37l-8 -7q-23 5 -36 5q-24 0 -40 -7t-24.5 -16t-12.5 -29.5t-4.5 -34t-0.5 -43.5v-80
q19 0 57 0.5t52 0.5l7 -8q-2 -15 -3 -39z" />
    <glyph glyph-name="fl" unicode="&#xfb02;" horiz-adv-x="479" 
d="M268 466l-7 -6q-37 1 -106 1q0 -274 7 -455l-5 -6q-17 1 -58 -1l-6 6q0 13 0.5 43t0.5 51q0 60 -0.5 181.5t-0.5 181.5q-38 0 -86 -2l-7 6q2 20 2 43l6 6q51 -3 85 -3l-2 67q-2 78 5 103q24 92 144 92q19 0 39 -5l5 -8q-3 -16 -3 -37l-8 -7q-23 5 -36 5q-24 0 -40 -7
t-24.5 -16t-12.5 -29.5t-4.5 -34t-0.5 -43.5v-80q19 0 57 0.5t52 0.5l7 -8q-2 -15 -3 -39zM413 6l-6 -6q-28 1 -59 -1l-5 6q-1 84 0 208v182q0 180 -3 269q-1 34 -7 113l6 7q23 2 63 9l6 -6q-3 -139 -3 -280q0 -370 8 -501z" />
    </font>
</defs>
</svg>
